<?xml version="1.0" encoding="utf-8"?>
<!-- Generator: Adobe Illustrator 24.2.1, SVG Export Plug-In . SVG Version: 6.00 Build 0)  -->
<svg version="1.1" id="Calque_1" xmlns="http://www.w3.org/2000/svg" xmlns:xlink="http://www.w3.org/1999/xlink" x="0px" y="0px"
	 viewBox="0 0 113.2 97.1" style="enable-background:new 0 0 113.2 97.1;" xml:space="preserve">
<style type="text/css">
	.st0{fill:#1AB107;}
</style>
<g>
	<path class="st0" d="M76.9,68.1H53.3c-1.7,0-3.2-1.4-3.2-3.2V46.8c0-1.9,1.7-4,3.8-6.6c2-2.4,4.2-5.2,5.1-8
		c0.4-1.2-0.1-5.2-0.6-7.6c-0.1-0.6,0.1-1.1,0.6-1.4c0.3-0.2,1.5-0.8,4.3-0.7c3.4,0.1,6.1,3.8,6.6,9.2c0.2,2.6,0,4.9-0.3,6.5h10.7
		c0.3,0,0.5,0,0.8,0.1c2.6,0.5,4.6,2.7,4.6,5.4c0,1.2-0.4,2.4-1.1,3.3c0.7,0.9,1.1,2.1,1.1,3.3c0,1.3-0.4,2.5-1.3,3.5
		c0.5,0.8,0.7,1.7,0.7,2.7c0,2.1-1.2,3.9-2.9,4.8c0.1,0.4,0.1,0.8,0.1,1.2c0,2.9-2.1,5.2-5,5.5C77.2,68.1,77.1,68.1,76.9,68.1z
		 M61.3,25.4c0.4,2.1,0.9,5.9,0.3,7.7c-1.1,3.3-3.5,6.3-5.6,8.9c-1.5,1.8-3.2,3.9-3.2,4.8V65c0,0.2,0.2,0.4,0.4,0.4h23.6l0,0h0.1
		c1.5-0.1,2.6-1.3,2.6-2.8c0-0.5-0.1-0.9-0.3-1.3c-0.2-0.4-0.2-0.8,0-1.2s0.5-0.7,1-0.8c1.3-0.3,2.2-1.4,2.2-2.7
		c0-0.7-0.3-1.4-0.8-1.9c-0.3-0.3-0.4-0.7-0.4-1.1c0-0.4,0.2-0.7,0.5-1c0.7-0.5,1.1-1.3,1.1-2.2s-0.4-1.7-1.1-2.2
		c-0.3-0.3-0.5-0.7-0.5-1.1c0-0.4,0.2-0.8,0.5-1.1c0.7-0.5,1.1-1.3,1.1-2.2c0-1.4-1-2.5-2.3-2.7h-0.1c-0.1,0-0.1,0-0.2,0H67.9
		c-0.4,0-0.8-0.2-1.1-0.5c-0.3-0.3-0.3-0.8-0.2-1.2c0.3-1.1,1-3.9,0.7-7.3c-0.4-4.3-2.3-6.6-4-6.7C62.4,25.3,61.8,25.3,61.3,25.4z"
		/>
	<path class="st0" d="M44.3,68.1H33.5c-1.8,0-3.3-1.5-3.3-3.3V46.1c0-1.8,1.5-3.3,3.3-3.3h10.8c1.8,0,3.3,1.5,3.3,3.3v18.7
		C47.6,66.7,46.1,68.1,44.3,68.1z M33.5,45.5c-0.3,0-0.6,0.3-0.6,0.6v18.7c0,0.3,0.3,0.6,0.6,0.6h10.8c0.3,0,0.6-0.3,0.6-0.6V46.1
		c0-0.3-0.3-0.6-0.6-0.6H33.5z"/>
	<path class="st0" d="M38.9,63c-1.9,0-3.4-1.5-3.4-3.4s1.5-3.4,3.4-3.4s3.4,1.5,3.4,3.4S40.8,63,38.9,63z M38.9,58.2
		c-0.8,0-1.4,0.6-1.4,1.4c0,0.8,0.6,1.4,1.4,1.4c0.8,0,1.4-0.6,1.4-1.4C40.3,58.8,39.7,58.2,38.9,58.2z"/>
</g>
</svg>
