<?xml version="1.0" encoding="utf-8"?>
<!-- Generator: Adobe Illustrator 24.2.0, SVG Export Plug-In . SVG Version: 6.00 Build 0)  -->
<svg version="1.1" id="Calque_1" xmlns="http://www.w3.org/2000/svg" xmlns:xlink="http://www.w3.org/1999/xlink" x="0px" y="0px"
	 viewBox="0 0 113.2 97.1" style="enable-background:new 0 0 113.2 97.1;" xml:space="preserve">
<style type="text/css">
	.st0{fill:#1AB107;}
</style>
<g>
	<path class="st0" d="M61.5,71.4c-0.2,0-0.5-0.1-0.7-0.2l-4.2-2.5l-4.2,2.5c-0.6,0.4-1.4,0.2-1.9-0.3l-3.1-3.8L42.6,68
		c-0.7,0.1-1.4-0.3-1.6-0.9l-1.6-4.7l-4.8-0.8c-0.7-0.1-1.2-0.7-1.2-1.4l0-5l-4.3-2.4c-0.6-0.3-0.9-1.1-0.6-1.7l1.7-4.7L27,42.5
		c-0.5-0.5-0.5-1.3,0-1.8l3.2-3.8l-1.7-4.7c-0.2-0.7,0-1.4,0.6-1.7l4.3-2.4l0-5c0-0.7,0.5-1.3,1.2-1.4l4.8-0.8l1.6-4.7
		c0.2-0.7,0.9-1.1,1.6-0.9l4.8,0.9l3.1-3.8c0.5-0.6,1.2-0.7,1.9-0.3l4.2,2.5l4.2-2.5c0.6-0.4,1.4-0.2,1.8,0.3l3.1,3.8l4.8-0.9
		c0.7-0.1,1.4,0.3,1.6,0.9l1.6,4.7l4.8,0.8c0.7,0.1,1.2,0.7,1.2,1.4l0,5l4.3,2.4c0.6,0.3,0.9,1.1,0.6,1.7l-1.7,4.7l3.2,3.8
		c0.5,0.5,0.5,1.3,0,1.8l-3.2,3.8l1.7,4.7c0.2,0.7,0,1.4-0.6,1.7l-4.3,2.4l0,5c0,0.7-0.5,1.3-1.2,1.4l-4.8,0.8L72.1,67
		c-0.2,0.7-0.9,1.1-1.6,0.9l-4.8-0.9l-3.1,3.8C62.3,71.2,61.9,71.4,61.5,71.4z M48,64.1c0.4,0,0.8,0.2,1.1,0.5l2.8,3.5l3.9-2.3
		c0.5-0.3,1-0.3,1.5,0l3.9,2.3l2.9-3.5c0.3-0.4,0.9-0.6,1.4-0.5l4.4,0.8l1.5-4.3c0.2-0.5,0.6-0.9,1.1-0.9l4.4-0.7l0-4.6
		c0-0.5,0.3-1,0.7-1.3l3.9-2.3l-1.6-4.3c-0.2-0.5-0.1-1,0.2-1.4l3-3.5l-3-3.5c-0.3-0.4-0.4-0.9-0.2-1.4l1.6-4.3l-3.9-2.3
		c-0.5-0.3-0.7-0.7-0.7-1.3l0-4.6l-4.4-0.7c-0.5-0.1-0.9-0.5-1.1-0.9l-1.5-4.3l-4.4,0.8c-0.5,0.1-1-0.1-1.4-0.5l-2.9-3.5l-3.9,2.3
		c-0.5,0.3-1,0.3-1.5,0l-3.9-2.3l-2.8,3.5c-0.3,0.4-0.9,0.6-1.4,0.5l-4.4-0.8l-1.5,4.3c-0.2,0.5-0.6,0.9-1.1,0.9l-4.4,0.7l0,4.6
		c0,0.5-0.3,1-0.7,1.3l-3.9,2.3l1.6,4.3c0.2,0.5,0.1,1-0.2,1.4l-3,3.5l3,3.5c0.3,0.4,0.4,0.9,0.2,1.4l-1.6,4.3l3.9,2.3
		c0.5,0.3,0.7,0.7,0.7,1.3l0,4.6l4.4,0.7c0.5,0.1,0.9,0.5,1.1,0.9l1.5,4.3l4.4-0.8C47.8,64.1,47.9,64.1,48,64.1z"/>
	<path class="st0" d="M65.9,67.1v16L57.4,77c-0.2-0.2-0.5-0.3-0.8-0.3c-0.3,0-0.6,0.1-0.8,0.3l-8.6,6.1v-16l-2.9,0.5v18.3
		c0,0.5,0.3,1,0.8,1.3c0.5,0.2,1,0.2,1.5-0.1l10-7.1l10,7.1c0.2,0.2,0.5,0.3,0.8,0.3c0.2,0,0.4-0.1,0.7-0.2c0.5-0.2,0.8-0.7,0.8-1.3
		V67.7L65.9,67.1z"/>
	<path class="st0" d="M56.5,61.3c-10.9,0-19.7-8.8-19.7-19.7s8.8-19.7,19.7-19.7c10.9,0,19.7,8.8,19.7,19.7S67.4,61.3,56.5,61.3z
		 M56.5,24.8c-9.3,0-16.8,7.5-16.8,16.8c0,9.3,7.5,16.8,16.8,16.8c9.3,0,16.8-7.5,16.8-16.8C73.4,32.3,65.8,24.8,56.5,24.8z"/>
	<path class="st0" d="M62.1,52.6c-0.5,0-1-0.1-1.5-0.4l-4-2.1c-0.1,0-0.2,0-0.3,0l-4,2.1c-1.1,0.6-2.3,0.5-3.3-0.2
		c-1-0.7-1.5-1.9-1.3-3.1l0.8-4.4c0-0.1,0-0.2-0.1-0.3l-3.2-3.1c-0.9-0.8-1.2-2.1-0.8-3.2c0.4-1.2,1.4-2,2.6-2.2l4.6-0.7l2.1-4.2
		c0.5-1.1,1.6-1.8,2.8-1.8c1.2,0,2.3,0.7,2.8,1.8l2,4c0,0.1,0.1,0.2,0.2,0.2l4.5,0.6c1.2,0.2,2.2,1,2.6,2.2c0.4,1.2,0.1,2.4-0.8,3.2
		l-3.2,3.1c-0.1,0.1-0.1,0.2-0.1,0.3l0.8,4.4c0.2,1.2-0.3,2.4-1.3,3.1C63.4,52.4,62.8,52.6,62.1,52.6z M56.5,47.3
		c0.5,0,1,0.1,1.5,0.4l4,2.1c0.1,0.1,0.2,0.1,0.3,0c0.1-0.1,0.1-0.2,0.1-0.3L61.7,45c-0.2-1,0.2-2.1,0.9-2.8l3.2-3.1
		c0.1-0.1,0.1-0.2,0.1-0.3c0-0.1-0.1-0.2-0.2-0.2l-4.5-0.6c-1-0.2-1.9-0.8-2.4-1.7l-2-4l0,0c-0.1-0.2-0.4-0.2-0.5,0L54,36.6
		c-0.3,0.6-0.9,1.1-1.6,1.2l-5,0.7c-0.1,0-0.2,0.1-0.2,0.2c0,0.1,0,0.2,0.1,0.3l3.2,3.1c0.7,0.7,1.1,1.8,0.9,2.8l-0.8,4.4
		c0,0.1,0,0.2,0.1,0.3c0.1,0.1,0.2,0.1,0.3,0l4-2.1C55.5,47.4,56,47.3,56.5,47.3z"/>
</g>
</svg>
