<?xml version="1.0" encoding="utf-8"?>
<!-- Generator: Adobe Illustrator 24.2.1, SVG Export Plug-In . SVG Version: 6.00 Build 0)  -->
<svg version="1.1" id="Calque_1" xmlns="http://www.w3.org/2000/svg" xmlns:xlink="http://www.w3.org/1999/xlink" x="0px" y="0px"
	 viewBox="0 0 113.2 97.1" style="enable-background:new 0 0 113.2 97.1;" xml:space="preserve">
<style type="text/css">
	.st0{fill:#1AB107;}
</style>
<g>
	<path class="st0" d="M76.5,45.9L76.5,45.9L76.5,45.9C75.9,31.2,68.9,24,55.2,24c-14,0-21,7.5-21.4,22.8l0,0l0,0L33.7,57
		c0,0.1,0,0.2,0,0.3c2.1,8.7,5.1,14.1,9.7,17.5c3.6,2.7,7.6,4.1,11.7,4.1s8.2-1.4,11.7-4.1c4.6-3.4,7.6-8.8,9.7-17.5
		c0-0.1,0-0.2,0-0.3V45.9z M55.2,26.6c11.8,0,17.8,5.8,18.7,18.2c0,0-0.1,0-0.2,0c-0.2,0-0.4,0-0.7,0.1c-0.3,0-0.5,0-0.8,0.1
		c-0.2,0-0.4,0-0.6,0c-0.3,0-0.5,0-0.8,0c-0.2,0-0.4,0-0.6,0c-0.3,0-0.5,0-0.8,0c-0.2,0-0.4,0-0.5,0c-0.2,0-0.5,0-0.7,0
		s-0.4,0-0.5,0c-0.2,0-0.5,0-0.7-0.1c-0.2,0-0.3,0-0.5-0.1c-0.2,0-0.4-0.1-0.7-0.1c-0.2,0-0.3-0.1-0.5-0.1s-0.4-0.1-0.6-0.1
		s-0.3-0.1-0.5-0.1s-0.4-0.1-0.6-0.1c-0.2,0-0.3-0.1-0.5-0.1s-0.4-0.1-0.5-0.1c-0.2,0-0.3-0.1-0.4-0.1c-0.2-0.1-0.3-0.1-0.5-0.2
		c-0.1,0-0.3-0.1-0.4-0.2c-0.2-0.1-0.3-0.1-0.5-0.2c-0.1-0.1-0.3-0.1-0.4-0.2c-0.1-0.1-0.3-0.1-0.4-0.2c-0.1-0.1-0.3-0.1-0.4-0.2
		c-0.1-0.1-0.3-0.1-0.4-0.2c-0.1-0.1-0.3-0.1-0.4-0.2c-0.1-0.1-0.3-0.1-0.4-0.2C58.3,42.1,58.2,42,58,42c-0.1-0.1-0.2-0.1-0.3-0.2
		c-0.1-0.1-0.2-0.1-0.4-0.2c-0.1-0.1-0.2-0.1-0.3-0.2c-0.1-0.1-0.2-0.1-0.3-0.2c-0.1-0.1-0.2-0.1-0.3-0.2c-0.1-0.1-0.2-0.1-0.3-0.2
		c-0.1-0.1-0.2-0.1-0.3-0.2c-0.1-0.1-0.2-0.2-0.3-0.2c-0.1-0.1-0.2-0.1-0.3-0.2c0-0.2-0.1-0.2-0.2-0.3s-0.2-0.1-0.2-0.2
		c-0.1-0.1-0.2-0.1-0.2-0.2c-0.1-0.1-0.1-0.1-0.2-0.2c-0.1-0.1-0.1-0.1-0.2-0.2C54,39,53.9,39,53.9,38.9c-0.1-0.1-0.1-0.1-0.2-0.2
		c-0.1-0.1-0.1-0.1-0.2-0.2l-0.1-0.1c-0.1-0.1-0.1-0.2-0.2-0.2l-0.1-0.1c-0.1-0.1-0.2-0.2-0.2-0.3l0,0c-0.5-0.6-0.8-1-0.8-1.1
		c-0.3-0.4-0.8-0.6-1.3-0.6l0,0c-0.6,0.1-1.1,0.2-1.6,0.3c-0.1,0-0.2,0.1-0.4,0.1c-0.5,0.1-1,0.3-1.5,0.4c-0.1,0-0.1,0.1-0.2,0.1
		c-0.4,0.1-0.9,0.3-1.3,0.5c-0.1,0-0.2,0.1-0.3,0.1c-0.4,0.2-0.9,0.4-1.3,0.6c-0.1,0.1-0.2,0.1-0.3,0.2c-0.3,0.2-0.7,0.3-1,0.5
		c-0.1,0.1-0.2,0.1-0.3,0.2c-0.4,0.2-0.7,0.4-1.1,0.7c-0.1,0.1-0.2,0.2-0.4,0.2c-0.3,0.2-0.5,0.4-0.8,0.5c-0.1,0.1-0.2,0.1-0.3,0.2
		c-0.3,0.2-0.6,0.4-0.9,0.7c-0.1,0.1-0.2,0.2-0.4,0.3c-0.2,0.2-0.4,0.4-0.6,0.5c-0.1,0.1-0.2,0.2-0.3,0.3c-0.2,0.2-0.4,0.4-0.6,0.5
		c-0.1,0.1-0.2,0.2-0.3,0.3l-0.1,0.1C37.9,31.9,43.8,26.6,55.2,26.6z M65.4,72.8c-3.1,2.3-6.6,3.5-10.2,3.5c-3.6,0-7.1-1.2-10.2-3.6
		c-4-3-6.7-7.9-8.7-15.9l0.1-9.6l0,0c0-0.1,0.1-0.1,0.1-0.2c0.1-0.1,0.1-0.1,0.2-0.2c0,0,0.1-0.1,0.1-0.2c0.1-0.1,0.2-0.2,0.3-0.3
		c0-0.1,0.1-0.1,0.1-0.2c0.1-0.1,0.3-0.3,0.4-0.4l0.1-0.1c0.2-0.2,0.4-0.3,0.5-0.5l0.1-0.1c0.7-0.7,1.6-1.4,2.6-2.1c0,0,0,0,0.1,0
		c0.3-0.2,0.6-0.4,1-0.7c0.1,0,0.2-0.1,0.2-0.2c0.3-0.2,0.6-0.4,0.8-0.5c0.1-0.1,0.2-0.1,0.4-0.2c0.3-0.2,0.5-0.3,0.8-0.5
		c0.1-0.1,0.3-0.1,0.4-0.2c0.3-0.1,0.5-0.3,0.8-0.4c0.2-0.1,0.3-0.1,0.5-0.2c0.3-0.1,0.6-0.2,0.9-0.3c0.2-0.1,0.3-0.1,0.5-0.2
		c0.3-0.1,0.6-0.2,0.9-0.3c0.2,0,0.3-0.1,0.5-0.1c0.5-0.1,0.9-0.2,1.4-0.3c0,0,0,0,0.1,0c0.4,0.5,0.9,1.1,1.6,1.8l0,0
		c0.1,0.1,0.2,0.2,0.4,0.3l0,0c0.1,0.1,0.2,0.2,0.4,0.3c0,0,0,0,0.1,0.1s0.2,0.2,0.4,0.3l0.1,0.1c0.1,0.1,0.3,0.2,0.4,0.3l0.1,0.1
		c0.1,0.1,0.3,0.2,0.4,0.3l0.1,0.1c0.1,0.1,0.3,0.2,0.4,0.3c0,0,0.1,0.1,0.2,0.1c0.1,0.1,0.3,0.2,0.4,0.3c0.1,0,0.1,0.1,0.2,0.1
		c0.1,0.1,0.3,0.2,0.4,0.3c0.1,0,0.1,0.1,0.2,0.1c0.2,0.1,0.3,0.2,0.5,0.3c0.1,0,0.1,0.1,0.2,0.1c0.2,0.1,0.3,0.2,0.5,0.3
		c0.1,0,0.2,0.1,0.2,0.1c0.2,0.1,0.3,0.2,0.5,0.3c0.1,0,0.2,0.1,0.3,0.1c0.2,0.1,0.3,0.2,0.5,0.2c0.1,0,0.2,0.1,0.3,0.1
		c0.2,0.1,0.4,0.1,0.5,0.2c0.1,0,0.2,0.1,0.3,0.1c0.2,0.1,0.4,0.1,0.6,0.2c0.1,0,0.2,0.1,0.3,0.1c0.2,0.1,0.4,0.1,0.6,0.2
		c0.1,0,0.2,0.1,0.3,0.1c0.2,0.1,0.4,0.1,0.6,0.2c0.1,0,0.2,0.1,0.4,0.1c0.2,0.1,0.4,0.1,0.6,0.2c0.1,0,0.3,0.1,0.4,0.1
		c0.2,0,0.4,0.1,0.6,0.1c0.1,0,0.3,0.1,0.4,0.1c0.2,0,0.4,0.1,0.6,0.1s0.3,0,0.5,0.1c0.2,0,0.4,0.1,0.6,0.1s0.3,0,0.5,0.1
		c0.2,0,0.4,0,0.6,0.1c0.2,0,0.4,0,0.5,0c0.2,0,0.4,0,0.6,0s0.4,0,0.6,0s0.4,0,0.6,0s0.5,0,0.7,0s0.4,0,0.5,0c0.3,0,0.7,0,1,0
		c0.1,0,0.2,0,0.3,0c0.5,0,0.9-0.1,1.4-0.1l0.1,9.5C72.1,64.9,69.4,69.8,65.4,72.8z"/>
	<path class="st0" d="M30.8,44.9L30.8,44.9c-1,0-1.7-0.8-1.7-1.8c0.5-18,9.3-27.1,26.1-27.1c16.5,0,25.2,8.8,26,26
		c0,0.9-0.7,1.7-1.6,1.8c-1,0-1.7-0.7-1.8-1.6c-0.7-15.5-7.9-22.8-22.6-22.8c-15,0-22.2,7.6-22.7,23.8
		C32.5,44.2,31.8,44.9,30.8,44.9z"/>
	<path class="st0" d="M73.2,71.4H57.5c-0.7,0-1.3-0.6-1.3-1.3c0-0.7,0.6-1.3,1.3-1.3h15.7c2.7,0,4.9-2.2,4.9-4.9V46.1
		c0-0.7,0.6-1.3,1.3-1.3c0.7,0,1.3,0.6,1.3,1.3v17.8C80.6,68,77.3,71.4,73.2,71.4z"/>
	<path class="st0" d="M31.9,40.9H30c-2.4,0-4.4,2-4.4,4.4v0.2c-2.6,0.6-4.5,2.9-4.5,5.6c0,2.7,1.9,5.1,4.5,5.6V57
		c0,2.5,2,4.4,4.4,4.4h1.9c2.4,0,4.4-2,4.4-4.4V45.3C36.4,42.9,34.4,40.9,31.9,40.9z M23.7,51.1c0-1.3,0.8-2.4,1.9-2.9v5.9
		C24.5,53.6,23.7,52.5,23.7,51.1z M33.8,57c0,1-0.8,1.9-1.9,1.9H30c-1,0-1.9-0.8-1.9-1.9v-1.3l0,0v-9l0,0v-1.3c0-1,0.8-1.9,1.9-1.9
		h1.9c1,0,1.9,0.8,1.9,1.9V57z"/>
	<path class="st0" d="M89.2,51.1c0-2.7-1.9-5-4.5-5.6v-0.2c0-2.4-2-4.4-4.4-4.4h-1.9c-2.5,0-4.4,2-4.4,4.4V57c0,2.5,2,4.4,4.4,4.4
		h1.9c2.4,0,4.4-2,4.4-4.4v-0.2C87.3,56.2,89.2,53.9,89.2,51.1z M80.3,58.9h-1.9c-1,0-1.9-0.8-1.9-1.9V45.3c0-1,0.8-1.9,1.9-1.9h1.9
		c1,0,1.9,0.8,1.9,1.9v1.3l0,0v9l0,0V57C82.2,58,81.3,58.9,80.3,58.9z M84.7,54.1v-5.9c1.1,0.5,1.9,1.6,1.9,2.9
		C86.7,52.5,85.9,53.6,84.7,54.1z"/>
	<path class="st0" d="M55.9,73.8c-3.5,0-6.3-2.8-6.3-6.2c0-0.7,0.6-1.3,1.3-1.3H61c0.7,0,1.3,0.6,1.3,1.3
		C62.3,71,59.4,73.8,55.9,73.8z M52.4,68.9c0.5,1.4,1.9,2.3,3.5,2.3s3-1,3.5-2.3H52.4z"/>
</g>
</svg>
