<?xml version="1.0" encoding="utf-8"?>
<!-- Generator: Adobe Illustrator 26.0.1, SVG Export Plug-In . SVG Version: 6.00 Build 0)  -->
<svg version="1.1" id="Calque_1" focusable="false" xmlns="http://www.w3.org/2000/svg" xmlns:xlink="http://www.w3.org/1999/xlink"
	 x="0px" y="0px" viewBox="0 0 512 512" style="enable-background:new 0 0 512 512;" xml:space="preserve">
<style type="text/css">
	.st0{fill:#F27930;}
</style>
<g>
	<g>
		<path class="st0" d="M485.2,484.2h-453c-3.5,0-6.3-2.8-6.3-6.3v-37.7c0-3.5,2.8-6.3,6.3-6.3h453c3.5,0,6.3,2.8,6.3,6.3v37.7
			C491.5,481.3,488.7,484.2,485.2,484.2z M38.5,471.6h440.4v-25.2H38.5V471.6z"/>
		<path class="st0" d="M485.2,488.2h-453c-5.7,0-10.3-4.6-10.3-10.3v-37.7c0-5.7,4.6-10.3,10.3-10.3h453c5.7,0,10.3,4.6,10.3,10.3
			v37.7C495.5,483.6,490.9,488.2,485.2,488.2z M32.2,437.9c-1.3,0-2.3,1-2.3,2.3v37.7c0,1.3,1,2.3,2.3,2.3h453
			c1.2,0,2.3-1.1,2.3-2.3v-37.7c0-1.3-1-2.3-2.3-2.3H32.2z M482.9,475.6H34.5v-33.2h448.4V475.6z M42.5,467.6h432.4v-17.2H42.5
			V467.6z"/>
	</g>
	<g>
		<path class="st0" d="M478.9,194.8H38.5c-3.5,0-6.3-2.8-6.3-6.3v-32.2c0-2.2,1.2-4.3,3.1-5.4L255.5,19.5c2-1.2,4.5-1.2,6.5,0
			l220.2,131.4c1.9,1.1,3.1,3.2,3.1,5.4v32.2C485.2,191.9,482.4,194.8,478.9,194.8z M44.8,182.2h427.8v-22.3L258.7,32.2L44.8,159.9
			V182.2z"/>
		<path class="st0" d="M478.9,198.8H38.5c-5.7,0-10.3-4.6-10.3-10.3v-32.2c0-3.6,2-7,5.1-8.9L253.5,16.1c3.3-2,7.3-2,10.6,0
			l220.2,131.4c3.1,1.8,5,5.2,5,8.8l0,32.3C489.1,194.2,484.5,198.8,478.9,198.8z M258.7,22.6c-0.4,0-0.8,0.1-1.2,0.3L37.3,154.3
			c-0.7,0.4-1.1,1.2-1.1,2v32.2c0,1.3,1,2.3,2.3,2.3h440.4c1.2,0,2.3-1.1,2.4-2.4v-32.1c0-0.8-0.4-1.6-1.1-1.9L260,22.9
			C259.6,22.7,259.2,22.6,258.7,22.6z M476.6,186.2H40.8v-28.6L258.7,27.5l217.9,130.1V186.2z M48.8,178.2h419.8v-16L258.7,36.9
			L48.8,162.2V178.2z"/>
	</g>
	<g>
		<path class="st0" d="M390.8,163.3H126.6c-3.5,0-6.3-2.8-6.3-6.3s2.8-6.3,6.3-6.3h264.2c3.5,0,6.3,2.8,6.3,6.3
			S394.3,163.3,390.8,163.3z"/>
		<path class="st0" d="M390.8,167.3H126.6c-5.7,0-10.3-4.6-10.3-10.3c0-5.7,4.6-10.3,10.3-10.3h264.2c5.7,0,10.3,4.6,10.3,10.3
			C401.1,162.7,396.5,167.3,390.8,167.3z M126.6,154.7c-1.3,0-2.3,1-2.3,2.3c0,1.3,1,2.3,2.3,2.3h264.2c1.3,0,2.3-1,2.3-2.3
			c0-1.3-1-2.3-2.3-2.3H126.6z"/>
	</g>
	<g>
		<g>
			<path class="st0" d="M441.1,415h-62.9c-3.5,0-6.3-2.8-6.3-6.3V219.9c0-3.5,2.8-6.3,6.3-6.3h62.9c3.5,0,6.3,2.8,6.3,6.3v188.7
				C447.4,412.1,444.6,415,441.1,415z M384.5,402.4h50.3V226.2h-50.3V402.4z"/>
			<path class="st0" d="M441.1,419h-62.9c-5.7,0-10.3-4.6-10.3-10.3V219.9c0-5.7,4.6-10.3,10.3-10.3h62.9c5.7,0,10.3,4.6,10.3,10.3
				v188.7C451.4,414.3,446.8,419,441.1,419z M378.2,217.6c-1.3,0-2.3,1-2.3,2.3v188.8c0,1.3,1,2.3,2.3,2.3h62.9
				c1.3,0,2.3-1.1,2.3-2.4V219.9c0-1.3-1-2.3-2.3-2.3H378.2z M438.8,406.4h-58.3V222.2h58.3V406.4z M388.5,398.4h42.3V230.2h-42.3
				V398.4z"/>
		</g>
		<g>
			<rect x="359.4" y="213.6" class="st0" width="100.7" height="12.6"/>
			<path class="st0" d="M464.1,230.2H355.4v-20.6h108.7V230.2z M363.4,222.2h92.7v-4.6h-92.7V222.2z"/>
		</g>
		<g>
			<rect x="359.4" y="402.4" class="st0" width="100.7" height="12.6"/>
			<path class="st0" d="M464.1,419H355.4v-20.6h108.7V419z M363.4,411h92.7v-4.6h-92.7V411z"/>
		</g>
	</g>
	<g>
		<g>
			<path class="st0" d="M290.2,415h-62.9c-3.5,0-6.3-2.8-6.3-6.3V219.9c0-3.5,2.8-6.3,6.3-6.3h62.9c3.5,0,6.3,2.8,6.3,6.3v188.7
				C296.4,412.1,293.6,415,290.2,415z M233.5,402.4h50.3V226.2h-50.3L233.5,402.4L233.5,402.4z"/>
			<path class="st0" d="M290.2,419h-62.9c-5.7,0-10.3-4.6-10.3-10.3V219.9c0-5.7,4.6-10.3,10.3-10.3h62.9c5.7,0,10.3,4.6,10.3,10.3
				l0,188.8C300.3,414.4,295.7,419,290.2,419z M227.3,217.6c-1.3,0-2.3,1-2.3,2.3v188.8c0,1.3,1,2.3,2.3,2.3h62.9
				c1.2,0,2.2-1.1,2.3-2.5V219.9c0-1.3-1-2.3-2.3-2.3H227.3z M287.8,406.4h-58.3V222.2h58.3V406.4z M237.5,398.4h42.3V230.2h-42.3
				V398.4z"/>
		</g>
		<g>
			<rect x="208.4" y="213.6" class="st0" width="100.7" height="12.6"/>
			<path class="st0" d="M313.1,230.2H204.4v-20.6h108.7V230.2z M212.4,222.2h92.7v-4.6h-92.7V222.2z"/>
		</g>
		<g>
			<rect x="208.4" y="402.4" class="st0" width="100.7" height="12.6"/>
			<path class="st0" d="M313.1,419H204.4v-20.6h108.7V419z M212.4,411h92.7v-4.6h-92.7V411z"/>
		</g>
	</g>
	<g>
		<g>
			<path class="st0" d="M139.2,415H76.3c-3.5,0-6.3-2.8-6.3-6.3V219.9c0-3.5,2.8-6.3,6.3-6.3h62.9c3.5,0,6.3,2.8,6.3,6.3v188.7
				C145.5,412.1,142.6,415,139.2,415z M82.5,402.4h50.3V226.2H82.5V402.4z"/>
			<path class="st0" d="M139.2,419H76.3c-5.7,0-10.3-4.6-10.3-10.3V219.9c0-5.7,4.6-10.3,10.3-10.3h62.9c5.7,0,10.3,4.6,10.3,10.3
				v188.7C149.5,414.3,144.9,419,139.2,419z M76.3,217.6c-1.3,0-2.3,1-2.3,2.3v188.8c0,1.3,1,2.3,2.3,2.3h62.9
				c1.2,0,2.3-1.1,2.3-2.4V219.9c0-1.3-1-2.3-2.3-2.3H76.3z M136.8,406.4H78.5V222.2h58.3V406.4z M86.5,398.4h42.3V230.2H86.5V398.4
				z"/>
		</g>
		<g>
			<rect x="57.4" y="213.6" class="st0" width="100.7" height="12.6"/>
			<path class="st0" d="M162.1,230.2H53.4v-20.6h108.7V230.2z M61.4,222.2h92.7v-4.6H61.4V222.2z"/>
		</g>
		<g>
			<rect x="57.4" y="402.4" class="st0" width="100.7" height="12.6"/>
			<path class="st0" d="M162.1,419H53.4v-20.6h108.7V419z M61.4,411h92.7v-4.6H61.4V411z"/>
		</g>
	</g>
</g>
</svg>
