<?xml version="1.0" encoding="utf-8"?>
<!-- Generator: Adobe Illustrator 26.0.1, SVG Export Plug-In . SVG Version: 6.00 Build 0)  -->
<svg version="1.1" id="Calque_1" focusable="false" xmlns="http://www.w3.org/2000/svg" xmlns:xlink="http://www.w3.org/1999/xlink"
	 x="0px" y="0px" viewBox="0 0 512 512" style="enable-background:new 0 0 512 512;" xml:space="preserve">
<style type="text/css">
	.st0{fill:#F27930;}
</style>
<g>
	<g>
		<g>
			<g>
				<g>
					<path class="st0" d="M473.1,409.6c-0.9,0-1.7-0.4-2.4-1l-87.1-87c0,0,0,0-0.1,0l-87.1,87.1c-1.3,1.3-3.5,1.3-4.8,0l-16.4-16.4
						c-1.4-1.4-1.4-3.5,0-4.9l89.1-89.1c0.1-0.1,0.2-0.3,0.4-0.4l16.4-16.4c0.9-0.9,2-1.2,3.1-0.9c0.6,0.1,1.3,0.4,1.8,0.9
						l16.4,16.4c0.1,0.1,0.3,0.3,0.4,0.4l89.2,89.1c1.4,1.4,1.4,3.5,0,4.9l-16.4,16.4C474.8,409.4,474,409.6,473.1,409.6z
						 M383.5,313.3c0.9,0,1.7,0.4,2.4,1l87.1,87.1c0,0,0,0,0.1,0l11.6-11.6c0,0,0,0,0-0.1l-87.1-87c-0.1-0.1-0.3-0.3-0.4-0.4
						l-13.6-13.6c0,0,0,0-0.1,0l-13.6,13.6c-0.1,0.1-0.2,0.3-0.4,0.4l-87.1,87.1c0,0,0,0,0,0.1l11.6,11.6c0,0,0,0,0.1,0l87-87.2
						C381.8,313.7,382.7,313.3,383.5,313.3z"/>
					<path class="st0" d="M294,413.2c-1.9,0-3.6-0.7-4.9-2l-16.4-16.4c-1.3-1.3-2.1-3.1-2.1-4.9s0.7-3.6,2.1-4.9l89-89
						c0.1-0.2,0.4-0.5,0.7-0.7l16.2-16.2c1.7-1.7,4-2.4,6.3-1.8c1.3,0.3,2.6,0.9,3.5,1.8l16.8,16.8l89.2,89.1
						c1.3,1.3,2.1,3.1,2.1,4.9s-0.7,3.6-2.1,4.9l-16.6,16.6c-1.4,1.2-2.9,1.8-4.8,1.8c-1.2,0-2.9-0.3-4.7-1.8l-0.2-0.2l-84.7-84.6
						l-84.7,84.7C297.6,412.5,295.9,413.2,294,413.2z M292.9,405l1.1,1.1l1.1-1.1H292.9z M473.1,406c0.1,0,0.1,0.1,0.1,0.1
						c0,0,0.1,0,0.1,0l1.2-1.2h-2.5L473.1,406z M287.3,389.8l6.7,6.7l84.7-84.9l0.1-0.1c1.4-1.2,3.1-1.8,4.7-1.8
						c1.2,0,2.9,0.3,4.7,1.8l0.2,0.2l84.7,84.7l6.7-6.7l-85.1-85l-11.2-11.2l-11.1,11.1c-0.1,0.2-0.4,0.5-0.7,0.7L287.3,389.8z
						 M488.2,388.6v2.6l1.3-1.3L488.2,388.6z M277.7,389.8l1.2,1.2v-2.4L277.7,389.8z M382.3,318.1h2.5l-1.2-1.2c0,0,0,0,0,0
						c0,0,0,0-0.1,0L382.3,318.1z M372.4,304.8L372.4,304.8C372.4,304.8,372.4,304.8,372.4,304.8z M382.4,285.2h2.4l-1.2-1.2
						L382.4,285.2z"/>
				</g>
			</g>
			<g>
				<g>
					<path class="st0" d="M301.5,488.7c-1.8-0.1-3.1-1.8-3.1-3.6c0-11.6,0-74.9,0-86.5c0-1.8,1.3-3.4,3.1-3.6c2-0.1,3.7,1.4,3.7,3.4
						v86.8C305.3,487.2,303.5,488.8,301.5,488.7z"/>
					<path class="st0" d="M301.7,492.2c-0.1,0-0.2,0-0.4,0h0c-3.6-0.2-6.4-3.3-6.4-7.1v-86.5c0-3.6,2.7-6.7,6.2-7.1l0.2,0
						c1.9-0.1,3.9,0.6,5.2,1.9c1.4,1.3,2.1,3.1,2.1,5v86.7c0.1,1.8-0.7,3.7-2,5C305.4,491.5,303.6,492.2,301.7,492.2z"/>
				</g>
			</g>
			<g>
				<g>
					<path class="st0" d="M464.9,488.7c-1.8-0.1-3.1-1.8-3.1-3.6c0-11.6,0-74.9,0-86.5c0-1.8,1.3-3.4,3.1-3.6c2-0.1,3.7,1.4,3.7,3.4
						v86.8C468.7,487.2,467,488.8,464.9,488.7z"/>
					<path class="st0" d="M465.1,492.2c-0.1,0-0.2,0-0.4,0l0,0c-3.6-0.2-6.4-3.3-6.4-7.1v-86.5c0-3.6,2.7-6.7,6.2-7.1l0.2,0
						c1.9-0.1,3.9,0.6,5.2,1.9c1.4,1.3,2.1,3.1,2.1,5v86.7c0.1,1.9-0.7,3.7-2,5C468.8,491.5,467,492.2,465.1,492.2z"/>
				</g>
			</g>
			<g>
				<g>
					<path class="st0" d="M461.1,365c-1.8-0.1-3.1-1.8-3.1-3.6v-65l0,0h-28.4l0,0v29.7c0,1.8-1.3,3.4-3.1,3.6
						c-2,0.1-3.7-1.4-3.7-3.4V293c0-1.9,1.5-3.5,3.5-3.5h35.2c1.9,0,3.5,1.5,3.5,3.5v68.6C464.7,363.6,463.1,365.2,461.1,365z"/>
					<path class="st0" d="M461.4,368.5c-0.2,0-0.4,0-0.6,0c-3.6-0.2-6.3-3.3-6.3-7.1v-61.5h-21.4v26.2c0,3.6-2.7,6.7-6.2,7.1l-0.2,0
						c-1.9,0.1-3.9-0.6-5.2-1.9c-1.4-1.3-2.1-3.1-2.1-5V293c0-3.9,3.1-7,7-7h35.2c3.9,0,7,3.1,7,7v68.9l0,0.3
						C467.9,365.8,464.9,368.5,461.4,368.5z"/>
				</g>
			</g>
		</g>
		<g>
			<g>
				<path class="st0" d="M480.3,488.7H287c-1.8,0-3.4-1.3-3.6-3.1c-0.1-2,1.4-3.7,3.4-3.7h193.3c1.8,0,3.4,1.3,3.6,3.1
					C483.8,487,482.2,488.7,480.3,488.7z"/>
				<path class="st0" d="M480.3,492.2H287c-3.6,0-6.7-2.7-7.1-6.2l0-0.2c-0.1-1.9,0.6-3.9,1.9-5.2c1.3-1.4,3.1-2.1,5-2.1h193.3
					c3.6,0,6.7,2.7,7.1,6.2l0,0.2c0.1,1.9-0.6,3.8-1.9,5.2C484,491.4,482.1,492.2,480.3,492.2z"/>
			</g>
		</g>
	</g>
</g>
<g>
	<g>
		<g>
			<g>
				<g>
					<path class="st0" d="M214.4,409.6c-0.9,0-1.7-0.4-2.4-1l-87.1-87c0,0,0,0-0.1,0l-87.1,87.1c-1.3,1.3-3.5,1.3-4.8,0l-16.4-16.4
						c-1.4-1.4-1.4-3.5,0-4.9l89.1-89.1c0.1-0.1,0.2-0.3,0.4-0.4l16.4-16.4c0.9-0.9,2-1.2,3.1-0.9c0.6,0.1,1.3,0.4,1.8,0.9
						l16.4,16.4c0.1,0.1,0.3,0.3,0.4,0.4l89.2,89.1c1.4,1.4,1.4,3.5,0,4.9l-16.4,16.4C216.1,409.4,215.2,409.6,214.4,409.6z
						 M124.8,313.3c0.9,0,1.7,0.4,2.4,1l87.1,87.1c0,0,0,0,0.1,0l11.6-11.6c0,0,0,0,0-0.1l-87.1-87c-0.1-0.1-0.3-0.3-0.4-0.4
						l-13.6-13.6c0,0,0,0-0.1,0l-13.6,13.6c-0.1,0.1-0.2,0.3-0.4,0.4l-87.1,87.1c0,0,0,0,0,0.1l11.6,11.6c0,0,0,0,0.1,0l87-87.2
						C123.1,313.7,123.9,313.3,124.8,313.3z"/>
					<path class="st0" d="M35.3,413.2c-1.9,0-3.6-0.7-4.9-2L14,394.8c-2.8-2.8-2.8-7.1,0-9.8l89-89c0.1-0.2,0.4-0.5,0.7-0.7
						l16.2-16.2c1.7-1.7,4-2.4,6.3-1.8c1.3,0.3,2.6,0.9,3.5,1.8l16.8,16.8l89.2,89.1c1.3,1.3,2.1,3.1,2.1,4.9s-0.7,3.6-2.1,4.9
						l-16.6,16.6c-1.3,1.2-3,1.8-4.8,1.8c-1.2,0-2.9-0.3-4.7-1.8l-0.2-0.2l-84.7-84.6l-84.7,84.7C38.9,412.5,37.2,413.2,35.3,413.2z
						 M34.2,405l1.1,1.1l1.1-1.1H34.2z M214.4,406c0.1,0,0.1,0.1,0.1,0.1c0,0,0.1,0,0.1,0l1.2-1.2h-2.5L214.4,406z M28.6,389.8
						l6.7,6.7l84.7-84.9l0.1-0.1c1.8-1.5,3.5-1.8,4.7-1.8c1.2,0,2.9,0.3,4.7,1.8l0.2,0.2l84.7,84.7l6.7-6.7l-85.1-85l-11.2-11.2
						l-11.1,11.1c-0.1,0.2-0.4,0.5-0.7,0.7L28.6,389.8z M229.5,388.6v2.6l1.3-1.3L229.5,388.6z M19,389.8l1.2,1.2v-2.4L19,389.8z
						 M123.6,318.1h2.5l-1.2-1.2c0,0,0,0,0,0c0,0,0,0,0,0L123.6,318.1z M113.7,304.8L113.7,304.8
						C113.7,304.8,113.7,304.8,113.7,304.8z M123.7,285.2h2.4l-1.2-1.2L123.7,285.2z"/>
				</g>
			</g>
			<g>
				<g>
					<path class="st0" d="M42.8,488.7c-1.8-0.1-3.1-1.8-3.1-3.6c0-11.6,0-74.9,0-86.5c0-1.8,1.3-3.4,3.1-3.6c2-0.1,3.7,1.4,3.7,3.4
						v86.8C46.5,487.2,44.8,488.8,42.8,488.7z"/>
					<path class="st0" d="M43,492.2c-0.1,0-0.2,0-0.3,0h0c-3.6-0.2-6.4-3.3-6.4-7.1v-86.5c0-3.6,2.7-6.7,6.2-7.1l0.2,0
						c1.9-0.1,3.9,0.6,5.2,1.9c1.4,1.3,2.1,3.1,2.1,5v86.8c0,1.9-0.8,3.7-2.2,5.1C46.5,491.5,44.8,492.2,43,492.2z"/>
				</g>
			</g>
			<g>
				<g>
					<path class="st0" d="M206.2,488.7c-1.8-0.1-3.1-1.8-3.1-3.6c0-11.6,0-74.9,0-86.5c0-1.8,1.3-3.4,3.1-3.6c2-0.1,3.7,1.4,3.7,3.4
						v86.8C210,487.2,208.2,488.8,206.2,488.7z"/>
					<path class="st0" d="M206.4,492.2c-0.1,0-0.2,0-0.4,0h0c-3.6-0.2-6.4-3.3-6.4-7.1v-86.5c0-3.6,2.7-6.7,6.2-7.1l0.2,0
						c2-0.1,3.9,0.6,5.2,1.9c1.4,1.3,2.1,3.1,2.1,5v86.7c0.1,1.8-0.7,3.7-2,5C210.1,491.5,208.3,492.2,206.4,492.2z"/>
				</g>
			</g>
			<g>
				<g>
					<path class="st0" d="M202.3,365c-1.8-0.1-3.1-1.8-3.1-3.6v-65l0,0h-28.4l0,0v29.7c0,1.8-1.3,3.4-3.1,3.6
						c-2,0.1-3.7-1.4-3.7-3.4V293c0-1.9,1.5-3.5,3.5-3.5h35.2c1.9,0,3.5,1.5,3.5,3.5v68.6C206,363.6,204.4,365.2,202.3,365z"/>
					<path class="st0" d="M202.7,368.5c-0.2,0-0.4,0-0.6,0c-3.6-0.2-6.3-3.3-6.3-7.1v-61.5h-21.4v26.2c0,3.6-2.7,6.7-6.2,7.1l-0.2,0
						c-1.9,0.1-3.9-0.6-5.2-1.9c-1.4-1.3-2.1-3.1-2.1-5V293c0-3.9,3.1-7,7-7h35.2c3.9,0,7,3.1,7,7v68.8l0,0.2
						C209.3,365.7,206.3,368.5,202.7,368.5z"/>
				</g>
			</g>
		</g>
		<g>
			<g>
				<path class="st0" d="M221.6,488.7H28.3c-1.8,0-3.4-1.3-3.6-3.1c-0.1-2,1.4-3.7,3.4-3.7h193.3c1.8,0,3.4,1.3,3.6,3.1
					C225.1,487,223.5,488.7,221.6,488.7z"/>
				<path class="st0" d="M221.6,492.2H28.3c-3.6,0-6.7-2.7-7.1-6.2l0-0.2c-0.1-1.9,0.6-3.9,1.9-5.2c1.3-1.4,3.1-2.1,5-2.1h193.3
					c3.6,0,6.7,2.7,7.1,6.2l0,0.2c0.1,1.9-0.6,3.8-1.9,5.2C225.3,491.4,223.4,492.2,221.6,492.2z"/>
			</g>
		</g>
	</g>
</g>
<g>
	<g>
		<g>
			<g>
				<path class="st0" d="M219.4,186c-1.3,0-2.5-0.6-3.2-1.8c-1.1-1.8-0.6-4.2,1.2-5.3l35.6-22.4c1.8-1.1,4.2-0.6,5.3,1.2
					c1.1,1.8,0.6,4.2-1.2,5.3l-35.6,22.3C220.8,185.7,220.1,186,219.4,186z"/>
				<path class="st0" d="M219.4,189.2c-2.5,0-4.7-1.3-6-3.4c-2-3.3-1-7.7,2.3-9.7l35.6-22.4c1.6-1,3.5-1.3,5.3-0.9
					c1.9,0.4,3.5,1.5,4.4,3.2c1,1.6,1.3,3.5,0.9,5.3c-0.4,1.9-1.5,3.5-3.2,4.4l-35.7,22.3C222.3,188.6,221,189.2,219.4,189.2z
					 M219.3,182.8C219.3,182.8,219.3,182.8,219.3,182.8C219.3,182.8,219.3,182.8,219.3,182.8z M255.1,159.1c-0.1,0-0.2,0-0.4,0.1
					l-35.6,22.4c-0.3,0.2-0.3,0.6-0.2,0.9c0.1,0.1,0.1,0.2,0.4,0.3c0.1,0,0.2-0.1,0.5-0.2l35.5-22.3c0.1-0.1,0.2-0.2,0.2-0.3
					c0-0.1,0-0.3-0.1-0.5c-0.1-0.1-0.2-0.2-0.3-0.2C255.2,159.2,255.1,159.1,255.1,159.1z"/>
			</g>
		</g>
		<g>
			<g>
				<path class="st0" d="M291.5,187c-0.7,0-1.4-0.2-2-0.6L252.9,163c-1.8-1.1-2.3-3.5-1.1-5.3c1.1-1.8,3.5-2.3,5.3-1.1l36.5,23.4
					c1.8,1.1,2.3,3.5,1.1,5.3C294,186.4,292.8,187,291.5,187z"/>
				<path class="st0" d="M291.5,190.2c-1.4,0-2.7-0.4-3.8-1.1l-36.5-23.4c-1.6-1-2.7-2.5-3.1-4.4c-0.4-1.8,0-3.8,1-5.4
					c1-1.6,2.5-2.7,4.4-3.1c1.9-0.4,3.8,0,5.4,1l36.5,23.4c1.6,0.9,2.7,2.5,3.1,4.4c0.4,1.9,0,3.8-1,5.4
					C296.1,189,293.9,190.2,291.5,190.2z M254.9,159.2c0,0-0.1,0-0.1,0c-0.1,0-0.2,0.1-0.3,0.2l-0.1,0.1c-0.1,0.2-0.1,0.4-0.1,0.5
					c0,0.1,0.1,0.2,0.2,0.3l36.7,23.4c0.1,0.1,0.2,0.1,0.3,0.1c0.2,0,0.4,0,0.5-0.2c0.2-0.3,0.2-0.4,0.1-0.5c0-0.1-0.1-0.2-0.2-0.3
					l-36.6-23.4C255.2,159.2,255,159.2,254.9,159.2z"/>
			</g>
		</g>
		<g>
			<g>
				<path class="st0" d="M255,163.6c-2.1,0-3.8-1.8-3.8-3.8V126c0-2.1,1.8-3.8,3.8-3.8s3.8,1.8,3.8,3.8v33.8
					C258.8,161.9,257.1,163.6,255,163.6z"/>
				<path class="st0" d="M255,166.8c-3.8,0-7-3.2-7-7V126c0-3.8,3.2-7,7-7s7,3.2,7,7v33.8C262,163.7,258.9,166.8,255,166.8z
					 M255,125.4c-0.2,0-0.6,0.3-0.6,0.6v33.8c0,0.2,0.3,0.6,0.6,0.6c0.3,0,0.6-0.3,0.6-0.6V126C255.6,125.8,255.2,125.4,255,125.4z"
					/>
			</g>
		</g>
	</g>
	<g>
		<g>
			<g>
				<path class="st0" d="M255,72.8c-15,0-27.2-12.2-27.2-27.2S240,18.4,255,18.4s27.2,12.2,27.2,27.2S270,72.8,255,72.8z M255,25.9
					c-10.8,0-19.6,8.8-19.6,19.6S244.2,65,255,65c10.8,0,19.6-8.8,19.6-19.6S265.7,25.9,255,25.9z"/>
				<path class="st0" d="M255,76c-16.8,0-30.4-13.6-30.4-30.4s13.6-30.4,30.4-30.4s30.4,13.6,30.4,30.4S271.8,76,255,76z M255,21.6
					c-13.2,0-24,10.8-24,24s10.8,24,24,24c13.2,0,24-10.8,24-24S268.2,21.6,255,21.6z M255,68.2c-12.6,0-22.8-10.2-22.8-22.7
					c0-12.6,10.2-22.8,22.8-22.8c12.6,0,22.8,10.2,22.8,22.7C277.8,58,267.6,68.2,255,68.2z M255,29.1c-9,0-16.4,7.3-16.4,16.4
					c0,9,7.3,16.3,16.4,16.3s16.4-7.3,16.4-16.4C271.4,36.4,264,29.1,255,29.1z"/>
			</g>
		</g>
		<g>
			<g>
				<path class="st0" d="M220.4,110c-2.1,0-3.8-1.8-3.8-3.8c0-12.8,6.4-24.7,17-31.9c1.8-1.2,4.2-0.7,5.3,1s0.7,4.2-1,5.3
					c-8.5,5.7-13.6,15.3-13.6,25.5C224.1,108.4,222.5,110,220.4,110z"/>
				<path class="st0" d="M220.4,113.2c-3.8,0-7-3.2-7-7c0-13.8,6.9-26.7,18.4-34.6c1.6-1.1,3.5-1.5,5.4-1.1c1.8,0.4,3.4,1.4,4.4,3
					c1,1.5,1.3,3.4,1,5.2c-0.3,1.9-1.4,3.6-3,4.6c-7.6,5.1-12.1,13.6-12.1,22.8l0,0.3C227.2,110.3,224.2,113.2,220.4,113.2z
					 M235.8,76.9c-0.1,0-0.2,0-0.4,0.1c-9.7,6.6-15.6,17.5-15.6,29.2c0,0.2,0.3,0.6,0.6,0.6c0.5,0,0.6-0.5,0.7-0.8
					c0.1-11.3,5.7-21.7,15-28c0.1,0,0.1-0.1,0.2-0.3c0-0.2,0-0.4-0.1-0.6c-0.1-0.1-0.2-0.2-0.3-0.2
					C235.9,76.9,235.8,76.9,235.8,76.9z"/>
			</g>
		</g>
		<g>
			<g>
				<path class="st0" d="M289.6,110c-2.1,0-3.8-1.8-3.8-3.8c0-10.2-5.1-19.8-13.6-25.5c-1.8-1.2-2.2-3.6-1-5.3
					c1.2-1.8,3.6-2.2,5.3-1c10.6,7.2,17,19.1,17,31.9C293.4,108.4,291.8,110,289.6,110z"/>
				<path class="st0" d="M289.6,113.2c-3.8,0-7-3.2-7-7c0-9.2-4.5-17.7-12.2-22.8c-1.6-1.1-2.7-2.7-3-4.5c-0.3-1.8,0.1-3.8,1.2-5.3
					c1-1.5,2.6-2.6,4.5-2.9c1.8-0.3,3.8,0.1,5.3,1.2c11.5,7.8,18.4,20.7,18.4,34.5l0,0.2C296.5,110.3,293.5,113.2,289.6,113.2z
					 M274.3,76.9C274.3,76.9,274.3,76.9,274.3,76.9c-0.2,0-0.4,0.1-0.4,0.2c-0.2,0.2-0.1,0.4-0.1,0.5c0,0.1,0.1,0.3,0.2,0.4
					c9.4,6.3,15,16.9,15,28.2c0,0.2,0.3,0.6,0.6,0.6c0.4,0,0.6-0.2,0.7-0.6c0-11.6-5.9-22.5-15.6-29.1
					C274.5,77,274.4,76.9,274.3,76.9z"/>
			</g>
		</g>
	</g>
	<g>
		<g>
			<g>
				<path class="st0" d="M170.8,229.1c-15,0-27.2-12.2-27.2-27.2s12.2-27.2,27.2-27.2s27.2,12.2,27.2,27.2
					C198,216.9,185.9,229.1,170.8,229.1z M170.8,182.2c-10.8,0-19.6,8.8-19.6,19.6s8.8,19.6,19.6,19.6s19.6-8.8,19.6-19.6
					C190.4,191,181.6,182.2,170.8,182.2z"/>
				<path class="st0" d="M170.8,232.3c-16.8,0-30.4-13.6-30.4-30.4c0-16.8,13.6-30.4,30.4-30.4c16.8,0,30.4,13.6,30.4,30.4
					C201.2,218.7,187.6,232.3,170.8,232.3z M170.8,177.9c-13.2,0-24,10.8-24,24c0,13.2,10.8,24,24,24c13.2,0,24-10.8,24-24
					C194.8,188.7,184,177.9,170.8,177.9z M170.8,224.6c-12.6,0-22.8-10.2-22.8-22.8s10.2-22.8,22.8-22.8s22.8,10.2,22.8,22.8
					S183.4,224.6,170.8,224.6z M170.8,185.4c-9,0-16.4,7.3-16.4,16.4s7.3,16.4,16.4,16.4s16.4-7.3,16.4-16.4
					S179.8,185.4,170.8,185.4z"/>
			</g>
		</g>
		<g>
			<g>
				<path class="st0" d="M136.2,266.5c-2.1,0-3.8-1.8-3.8-3.8c0-12.8,6.4-24.7,17-31.9c1.8-1.2,4.2-0.7,5.3,1c1.2,1.8,0.7,4.2-1,5.3
					c-8.5,5.7-13.6,15.3-13.6,25.5C140,264.7,138.3,266.5,136.2,266.5z"/>
				<path class="st0" d="M136.2,269.7c-3.8,0-7-3.2-7-7c0-13.8,6.9-26.7,18.4-34.6c1.6-1.1,3.5-1.5,5.4-1.1c1.8,0.4,3.4,1.4,4.4,3
					c1,1.6,1.4,3.5,1,5.4c-0.4,1.8-1.4,3.4-3,4.4c-7.6,5.1-12.1,13.6-12.1,22.8l0,0.2C143.1,266.6,139.9,269.7,136.2,269.7z
					 M151.6,233.4c-0.1,0-0.2,0-0.4,0.1c-9.7,6.6-15.6,17.5-15.6,29.2c0,0.2,0.3,0.6,0.6,0.6c0.3,0,0.6-0.4,0.7-0.8
					c0-11.3,5.6-21.8,15-28.1c0.2-0.1,0.2-0.3,0.2-0.3c0-0.1,0-0.3-0.1-0.5c-0.1-0.2-0.2-0.2-0.3-0.2
					C151.7,233.4,151.6,233.4,151.6,233.4z"/>
			</g>
		</g>
		<g>
			<g>
				<path class="st0" d="M205.4,266.5c-2.1,0-3.8-1.8-3.8-3.8c0-10.2-5.1-19.8-13.6-25.5c-1.8-1.2-2.2-3.6-1-5.3
					c1.2-1.8,3.6-2.2,5.3-1c10.6,7.2,17,19.1,17,31.9C209.3,264.7,207.5,266.5,205.4,266.5z"/>
				<path class="st0" d="M205.4,269.7c-3.8,0-7-3.2-7-7c0-9.2-4.5-17.7-12.2-22.8c-1.6-1.1-2.7-2.7-3-4.5c-0.3-1.8,0.1-3.8,1.2-5.3
					c1-1.5,2.6-2.6,4.5-2.9c1.8-0.3,3.8,0.1,5.3,1.2c11.5,7.8,18.4,20.7,18.4,34.5C212.5,266.6,209.3,269.7,205.4,269.7z
					 M190.1,233.4C190.1,233.4,190.1,233.4,190.1,233.4c-0.2,0-0.4,0.1-0.4,0.2c-0.2,0.2-0.1,0.4-0.1,0.5c0,0.1,0.1,0.3,0.2,0.4
					c9.4,6.3,15,16.9,15,28.2c0,0.2,0.3,0.6,0.6,0.6c0.3,0,0.6-0.3,0.7-0.5c0-11.7-5.8-22.6-15.6-29.2
					C190.3,233.5,190.2,233.4,190.1,233.4z"/>
			</g>
		</g>
	</g>
	<g>
		<g>
			<g>
				<path class="st0" d="M340.2,229.1c-15,0-27.2-12.2-27.2-27.2s12.2-27.2,27.2-27.2s27.2,12.2,27.2,27.2
					C367.4,216.9,355.2,229.1,340.2,229.1z M340.2,182.2c-10.8,0-19.6,8.8-19.6,19.6s8.8,19.6,19.6,19.6s19.6-8.8,19.6-19.6
					C359.7,191,351,182.2,340.2,182.2z"/>
				<path class="st0" d="M340.2,232.3c-16.8,0-30.4-13.6-30.4-30.4c0-16.8,13.7-30.4,30.4-30.4s30.4,13.6,30.4,30.4
					C370.6,218.7,357,232.3,340.2,232.3z M340.2,177.9c-13.2,0-24,10.8-24,24c0,13.2,10.8,24,24,24s24-10.8,24-24
					C364.2,188.7,353.4,177.9,340.2,177.9z M340.2,224.6c-12.6,0-22.8-10.2-22.8-22.8s10.2-22.8,22.8-22.8
					c12.5,0,22.7,10.2,22.8,22.8C363,214.4,352.8,224.6,340.2,224.6z M340.2,185.4c-9,0-16.4,7.3-16.4,16.4s7.3,16.4,16.4,16.4
					s16.4-7.3,16.4-16.4C356.5,192.8,349.1,185.4,340.2,185.4z"/>
			</g>
		</g>
		<g>
			<g>
				<path class="st0" d="M305.6,266.5c-2.1,0-3.8-1.8-3.8-3.8c0-12.8,6.4-24.7,17-31.9c1.8-1.2,4.2-0.7,5.3,1c1.2,1.8,0.7,4.2-1,5.3
					c-8.5,5.7-13.6,15.3-13.6,25.5C309.4,264.7,307.6,266.5,305.6,266.5z"/>
				<path class="st0" d="M305.6,269.7c-3.8,0-7-3.2-7-7c0-13.8,6.9-26.7,18.4-34.6c1.6-1.1,3.5-1.5,5.4-1.1c1.8,0.4,3.4,1.4,4.4,3
					c1,1.6,1.4,3.5,1,5.4c-0.4,1.8-1.4,3.4-3,4.4c-7.6,5.1-12.1,13.6-12.1,22.8l0,0.2C312.5,266.6,309.3,269.7,305.6,269.7z
					 M321,233.4c-0.1,0-0.2,0-0.4,0.1c-9.7,6.6-15.6,17.5-15.6,29.2c0,0.2,0.3,0.6,0.6,0.6c0.2,0,0.6-0.4,0.7-0.8
					c0-11.3,5.6-21.8,15-28.1c0.2-0.1,0.2-0.3,0.2-0.3c0-0.1,0-0.3-0.1-0.5c-0.1-0.2-0.2-0.2-0.3-0.2
					C321.1,233.4,321,233.4,321,233.4z"/>
			</g>
		</g>
		<g>
			<g>
				<path class="st0" d="M374.9,266.5c-2.1,0-3.8-1.8-3.8-3.8c0-10.2-5.1-19.8-13.6-25.5c-1.8-1.2-2.2-3.6-1-5.3
					c1.2-1.8,3.6-2.2,5.3-1c10.6,7.2,17,19.1,17,31.9C378.6,264.7,376.9,266.5,374.9,266.5z"/>
				<path class="st0" d="M374.9,269.7c-3.8,0-7-3.2-7-7c0-9.2-4.5-17.7-12.2-22.8c-1.6-1.1-2.7-2.7-3-4.5c-0.3-1.8,0.1-3.8,1.2-5.3
					c1-1.5,2.6-2.6,4.5-2.9c1.8-0.3,3.8,0.1,5.3,1.2c11.5,7.8,18.4,20.7,18.4,34.5l0,0.3C381.6,266.8,378.4,269.7,374.9,269.7z
					 M359.6,233.4C359.6,233.4,359.6,233.4,359.6,233.4c-0.2,0-0.4,0.1-0.4,0.2c-0.2,0.2-0.1,0.4-0.1,0.5c0,0.1,0.1,0.3,0.2,0.4
					c9.4,6.3,15,16.9,15,28.2c0,0.2,0.3,0.6,0.6,0.6c0.2,0,0.6-0.4,0.7-0.7c-0.1-11.6-5.9-22.4-15.6-29
					C359.8,233.5,359.7,233.4,359.6,233.4z"/>
			</g>
		</g>
	</g>
</g>
</svg>
