<?xml version="1.0" encoding="utf-8"?>
<!-- Generator: Adobe Illustrator 25.1.0, SVG Export Plug-In . SVG Version: 6.00 Build 0)  -->
<svg version="1.1" id="Calque_1" focusable="false" xmlns="http://www.w3.org/2000/svg" xmlns:xlink="http://www.w3.org/1999/xlink"
	 x="0px" y="0px" viewBox="0 0 512 512" style="enable-background:new 0 0 512 512;" xml:space="preserve">
<style type="text/css">
	.st0{fill:#F27930;}
</style>
<g>
	<g>
		<g>
			<path class="st0" d="M52.8,215.4c-2.8,0-5.6-1.2-7.7-3.5c-22-25.1-34.1-57.4-34.1-91c0-19,3.8-37.4,11.2-54.8
				c1.7-4,3.7-8.1,5.9-12.1c2.7-4.9,8.9-6.7,13.8-4c4.9,2.7,6.7,8.9,4,13.8c-1.8,3.3-3.5,6.8-5,10.2c-6.4,14.8-9.6,30.6-9.6,46.8
				c0,28.6,10.3,56.2,29.1,77.6c3.7,4.2,3.3,10.7-0.9,14.4C57.6,214.6,55.2,215.4,52.8,215.4z"/>
		</g>
		<g>
			<path class="st0" d="M250.3,210.8c-2.2,0-4.5-0.7-6.3-2.2c-4.4-3.5-5.1-9.9-1.6-14.3c16.5-20.7,25.6-46.8,25.6-73.4
				c0-15.9-3.2-31.5-9.5-46.3c-1.4-3.4-3-6.8-5.2-10.7c-2.7-4.9-0.9-11.1,4-13.8c4.9-2.7,11.1-0.9,13.8,4c2.6,4.7,4.5,8.7,6.1,12.7
				c7.3,17.2,11.1,35.4,11.1,54.1c0,31.2-10.7,61.7-30,86C256.2,209.5,253.3,210.8,250.3,210.8z"/>
		</g>
		<g>
			<path class="st0" d="M262.1,82.1C249.4,82.1,239,71.8,239,59s10.4-23.1,23.1-23.1c12.7,0,23.1,10.4,23.1,23.1
				S274.9,82.1,262.1,82.1z M262.1,56.3c-1.5,0-2.8,1.2-2.8,2.7s1.2,2.7,2.8,2.7c1.5,0,2.8-1.2,2.8-2.7S263.7,56.3,262.1,56.3z"/>
		</g>
		<g>
			<path class="st0" d="M38.1,82.1C25.4,82.1,15,71.8,15,59s10.4-23.1,23.1-23.1c12.7,0,23.1,10.4,23.1,23.1S50.9,82.1,38.1,82.1z
				 M38.1,56.3c-1.5,0-2.7,1.2-2.7,2.7s1.2,2.7,2.7,2.7c1.5,0,2.7-1.2,2.7-2.7S39.7,56.3,38.1,56.3z"/>
		</g>
	</g>
	<g>
		<path class="st0" d="M380.1,474.8H197.3c-31.9,0-57.9-26-57.9-57.9V357c0-5.6,4.6-10.2,10.2-10.2c5.6,0,10.2,4.6,10.2,10.2v59.9
			c0,20.7,16.8,37.5,37.5,37.5h182.8c20.7,0,37.5-16.8,37.5-37.5v-99.6c0-5.6,4.6-10.2,10.2-10.2s10.2,4.6,10.2,10.2v99.6
			C438,448.8,412,474.8,380.1,474.8z"/>
	</g>
	<g>
		<path class="st0" d="M427.8,327.5c-43.1,0-78.2-35.1-78.2-78.2c0-43.1,35.1-78.2,78.2-78.2s78.2,35.1,78.2,78.2
			C506,292.5,470.9,327.5,427.8,327.5z M427.8,191.5c-31.9,0-57.8,25.9-57.8,57.8s25.9,57.8,57.8,57.8s57.8-25.9,57.8-57.8
			S459.7,191.5,427.8,191.5z"/>
	</g>
	<g>
		<path class="st0" d="M427.8,288.1c-21.3,0-38.7-17.4-38.7-38.7c0-21.3,17.4-38.7,38.7-38.7c21.3,0,38.7,17.4,38.7,38.7
			C466.5,270.7,449.2,288.1,427.8,288.1z M427.8,231c-10.1,0-18.3,8.2-18.3,18.3c0,10.1,8.2,18.4,18.3,18.4s18.3-8.2,18.3-18.4
			C446.2,239.2,437.9,231,427.8,231z"/>
	</g>
	<g>
		<path class="st0" d="M169.7,367.2H128c-5.4,0-9.8-4.1-10.2-9.5l-4.9-73.2c-14.5-7.1-53.4-27.9-78.8-57c-3.1-3.5-3.4-8.7-0.7-12.6
			l24.9-35.4c1.8-2.6,4.7-4.1,7.8-4.3c3.1-0.2,6.1,1.1,8.2,3.4c0.6,0.6,32.1,35.3,75.3,35.3c45.8,0,76.9-34.5,77.2-34.9
			c1.8-2.1,4.4-3.3,7.1-3.4c2.9-0.2,5.4,0.9,7.4,2.7l30.9,28.9c4,3.7,4.3,10,0.7,14.1c-5.2,6-48.6,54.9-88.3,62.3l-4.8,74
			C179.5,363,175.1,367.2,169.7,367.2z M137.5,346.8h22.6l4.7-73.1c0.4-5.4,4.8-9.5,10.2-9.5c24.1,0,58.5-30.7,75.9-48.9l-16.4-15.4
			c-13.4,12-43.9,34.4-85,34.4c-37.9,0-67.3-20.9-81.5-33.3l-13.3,18.9c28.5,28.9,71.5,48.5,72,48.7c3.4,1.5,5.7,4.8,6,8.6
			L137.5,346.8z"/>
	</g>
</g>
</svg>
