<?xml version="1.0" encoding="utf-8"?>
<!-- Generator: Adobe Illustrator 24.2.1, SVG Export Plug-In . SVG Version: 6.00 Build 0)  -->
<svg version="1.1" id="Calque_1" focusable="false" xmlns="http://www.w3.org/2000/svg" xmlns:xlink="http://www.w3.org/1999/xlink"
	 x="0px" y="0px" viewBox="0 0 512 512" style="enable-background:new 0 0 512 512;" xml:space="preserve">
<style type="text/css">
	.st0{fill:#F27930;}
	.st1{fill:#F27930;stroke:#363F40;stroke-width:15.6562;stroke-linejoin:round;stroke-miterlimit:10;}
</style>
<g>
	<g>
		<g>
			<path class="st0" d="M499.2,490.7H13.8c-4.3,0-7.8-3.5-7.8-7.8v-227c0-0.5,0-1,0.1-1.5L37.5,90c0.7-3.7,3.9-6.4,7.7-6.4h31.3
				c3.8,0,7,2.7,7.7,6.4l28.7,150.7l75.8-68.9c2.3-2.1,5.6-2.6,8.4-1.4c2.8,1.3,4.7,4.1,4.7,7.2v69.2l88.9-75.2
				c2.3-2,5.6-2.4,8.3-1.1c2.8,1.3,4.5,4.1,4.5,7.1v69.2l88.9-75.2c2.3-2,5.6-2.4,8.3-1.1c2.8,1.3,4.5,4.1,4.5,7.1v69.2l88.9-75.2
				c2.3-2,5.6-2.4,8.3-1.1c2.8,1.3,4.5,4.1,4.5,7.1v305.3C507,487.2,503.5,490.7,499.2,490.7z M21.7,475.1h469.7V194.5l-88.9,75.2
				c-2.3,2-5.6,2.4-8.3,1.1c-2.8-1.3-4.5-4.1-4.5-7.1v-69.2l-88.9,75.2c-2.3,2-5.6,2.4-8.3,1.1c-2.8-1.3-4.5-4.1-4.5-7.1v-69.2
				l-88.9,75.2c-2.3,2-5.6,2.4-8.3,1.1c-2.8-1.3-4.5-4.1-4.5-7.1v-68.4l-70.5,64v168.8H99.9V256.6L70,99.3H51.6l-30,157.3V475.1z"/>
		</g>
		<g>
			<g>
				<g>
					<g>
						<g>
							<g>
								<path class="st0" d="M225.2,68c-16.7,0-28.7-17.2-30-19.1c-2.1-3.1-9.9-12.2-17-12.2c-7.3,0-15.3,9.6-17,12.2
									c-1.3,2-13.3,19.1-30,19.1c-16.7,0-28.7-17.2-30-19.1c-2.1-3.1-9.9-12.2-17-12.2V21c16.7,0,28.7,17.2,30,19.1
									c2.1,3.1,9.9,12.2,17,12.2c7.3,0,15.3-9.6,17-12.2c1.3-2,13.3-19.1,30-19.1c16.7,0,28.7,17.2,30,19.1
									c2.1,3.1,9.9,12.2,17,12.2c7.3,0,15.3-9.6,17-12.2c1.3-2,13.3-19.1,30-19.1v15.7c-7.3,0-15.3,9.6-17,12.2
									C253.9,50.9,241.8,68,225.2,68z"/>
							</g>
						</g>
					</g>
				</g>
				<g>
					<g>
						<g>
							<g>
								<path class="st0" d="M84.3,28.9"/>
							</g>
						</g>
					</g>
				</g>
			</g>
			<g>
				<path class="st0" d="M68.6,52.4H53C53,35.1,67,21,84.3,21v15.7C75.7,36.7,68.6,43.7,68.6,52.4z"/>
			</g>
			<g>
				<rect x="53" y="52.4" class="st0" width="15.7" height="15.7"/>
			</g>
		</g>
		<g>
			<rect x="53" y="365.5" class="st0" width="15.7" height="15.7"/>
		</g>
		<g>
			<rect x="53" y="396.8" class="st0" width="15.7" height="15.7"/>
		</g>
		<g>
			<rect x="53" y="334.2" class="st0" width="15.7" height="15.7"/>
		</g>
		<g>
			<rect x="53" y="302.9" class="st0" width="15.7" height="15.7"/>
		</g>
		<g>
			<path class="st0" d="M217.4,349.8h-62.6v-47h62.6V349.8z M170.4,334.2h31.3v-15.7h-31.3V334.2z"/>
		</g>
		<g>
			<path class="st0" d="M217.4,412.5h-62.6v-47h62.6V412.5z M170.4,396.8h31.3v-15.7h-31.3V396.8z"/>
		</g>
		<g>
			<path class="st0" d="M295.6,349.8H233v-47h62.6V349.8z M248.7,334.2H280v-15.7h-31.3V334.2z"/>
		</g>
		<g>
			<path class="st0" d="M295.6,412.5H233v-47h62.6V412.5z M248.7,396.8H280v-15.7h-31.3V396.8z"/>
		</g>
		<g>
			<path class="st0" d="M373.9,349.8h-62.6v-47h62.6V349.8z M327,334.2h31.3v-15.7H327V334.2z"/>
		</g>
		<g>
			<path class="st0" d="M373.9,412.5h-62.6v-47h62.6V412.5z M327,396.8h31.3v-15.7H327V396.8z"/>
		</g>
		<g>
			<path class="st0" d="M452.2,349.8h-62.6v-47h62.6V349.8z M405.2,334.2h31.3v-15.7h-31.3V334.2z"/>
		</g>
		<g>
			<path class="st0" d="M452.2,412.5h-62.6v-47h62.6V412.5z M405.2,396.8h31.3v-15.7h-31.3V396.8z"/>
		</g>
		<g>
			<path class="st1" d="M499.2,451.6"/>
		</g>
		<g>
			<rect x="131.2" y="443.8" class="st0" width="344.4" height="15.7"/>
		</g>
		<g>
			<rect x="37.3" y="130.6" class="st0" width="47" height="15.7"/>
		</g>
		<g>
			<polygon class="st0" points="115.6,482.9 99.9,482.9 99.9,459.4 13.8,459.4 13.8,443.8 115.6,443.8 			"/>
		</g>
	</g>
</g>
</svg>
