<?xml version="1.0" encoding="utf-8"?>
<!-- Generator: Adobe Illustrator 24.1.3, SVG Export Plug-In . SVG Version: 6.00 Build 0)  -->
<svg version="1.1" id="Calque_1" xmlns="http://www.w3.org/2000/svg" xmlns:xlink="http://www.w3.org/1999/xlink" x="0px" y="0px"
	 viewBox="0 0 332.3 74.9" style="enable-background:new 0 0 332.3 74.9;" xml:space="preserve">
<style type="text/css">
	.st0{fill:#52656F;}
	.st1{fill:url(#SVGID_1_);}
	.st2{fill:url(#SVGID_2_);}
	.st3{fill:url(#SVGID_3_);}
	.st4{fill:url(#SVGID_4_);}
	.st5{fill:url(#SVGID_5_);}
	.st6{fill:url(#SVGID_6_);}
	.st7{fill:url(#SVGID_7_);}
</style>
<path class="st0" d="M9.1,11.3h9.8l12.8,18.8V11.3h9.9v34h-9.9L19,26.7v18.7H9.1V11.3z"/>
<path class="st0" d="M48.6,11.3h28.2v7.3H59.2V24h16.4v7H59.2v6.7h18.2v7.7H48.6V11.3z"/>
<path class="st0" d="M80.7,11.3h11.6l6,10.5l5.9-10.5h11.5L105,27.8l11.6,17.6h-11.8l-6.7-10.9l-6.7,10.9H79.6l11.7-17.7L80.7,11.3z
	"/>
<linearGradient id="SVGID_1_" gradientUnits="userSpaceOnUse" x1="79.3273" y1="45.7" x2="104.7273" y2="45.7" gradientTransform="matrix(1 0 0 -1 0 74)">
	<stop  offset="0" style="stop-color:#8DC449"/>
	<stop  offset="1" style="stop-color:#00673A"/>
</linearGradient>
<path class="st1" d="M104.7,27.8L91.1,45.3H79.3L91,27.6L80.4,11.3H92L104.7,27.8"/>
<path class="st0" d="M117.6,11.3h32v8.4h-10.7v25.6h-10.5V19.7h-10.7v-8.4H117.6z"/>
<g>
	
		<linearGradient id="SVGID_2_" gradientUnits="userSpaceOnUse" x1="165.1" y1="58.6392" x2="165.1" y2="31.9402" gradientTransform="matrix(1 0 0 -1 0 74)">
		<stop  offset="0" style="stop-color:#8DC449"/>
		<stop  offset="1" style="stop-color:#00673A"/>
	</linearGradient>
	<path class="st2" d="M155.9,11.1h18.4v1.2h-17V27h17v1.2h-17v15h17v1.2h-18.4V11.1z"/>
	
		<linearGradient id="SVGID_3_" gradientUnits="userSpaceOnUse" x1="193.9" y1="58.6392" x2="193.9" y2="31.9402" gradientTransform="matrix(1 0 0 -1 0 74)">
		<stop  offset="0" style="stop-color:#8DC449"/>
		<stop  offset="1" style="stop-color:#00673A"/>
	</linearGradient>
	<path class="st3" d="M205.7,42.6V11.1h1.4v33.3h-1.7l-23.3-32v32h-1.4V11.1h2L205.7,42.6z"/>
	
		<linearGradient id="SVGID_4_" gradientUnits="userSpaceOnUse" x1="223.2" y1="58.6392" x2="223.2" y2="31.9402" gradientTransform="matrix(1 0 0 -1 0 74)">
		<stop  offset="0" style="stop-color:#8DC449"/>
		<stop  offset="1" style="stop-color:#00673A"/>
	</linearGradient>
	<path class="st4" d="M214,11.1h18.4v1.2h-17V27h17v1.2h-17v15h17v1.2H214V11.1z"/>
	
		<linearGradient id="SVGID_5_" gradientUnits="userSpaceOnUse" x1="248.9553" y1="58.6392" x2="248.9553" y2="31.9402" gradientTransform="matrix(1 0 0 -1 0 74)">
		<stop  offset="0" style="stop-color:#8DC449"/>
		<stop  offset="1" style="stop-color:#00673A"/>
	</linearGradient>
	<path class="st5" d="M238.3,11.1h7.6c5.2,0,7.3,0.5,8.9,1.4c2.7,1.4,4.8,5,4.8,8.9c0.1,2.1-0.5,4.7-2.1,6.8c-2.4,3.2-5.2,3.6-9,3.7
		l9,12.6h-1.7L246,30.6h1c2.4,0,6.4,0,8.6-2.1c2.1-2.2,2.9-4.5,2.9-7.1c0-2.9-1.4-6.1-4-7.8c-2-1.3-4.5-1.4-8.4-1.4h-6.3v32.1h-1.4
		V11.1H238.3z"/>
	
		<linearGradient id="SVGID_6_" gradientUnits="userSpaceOnUse" x1="279.7" y1="58.6392" x2="279.7" y2="31.9402" gradientTransform="matrix(1 0 0 -1 0 74)">
		<stop  offset="0" style="stop-color:#8DC449"/>
		<stop  offset="1" style="stop-color:#00673A"/>
	</linearGradient>
	<path class="st6" d="M293.1,18.5c-1.4-1.8-2.9-3.2-4.7-4.3c-2.6-1.6-5.6-2.5-8.9-2.5c-8.9,0-16,6.8-16,16s7.1,16,16,16
		c4.3,0,8-1.5,10.8-3.8c2.9-2.3,4.8-5.4,5.4-8.5h-20v-1.2h21.6c-0.2,1.7-0.7,3.4-1.4,4.9c-2.8,5.7-9,9.8-16.4,9.8
		c-9.6,0-17.4-7.3-17.4-17.3s7.8-17.3,17.4-17.3c6.2,0,12.2,3,15.2,8h-1.6V18.5z"/>
	
		<linearGradient id="SVGID_7_" gradientUnits="userSpaceOnUse" x1="311.45" y1="58.6392" x2="311.45" y2="31.9402" gradientTransform="matrix(1 0 0 -1 0 74)">
		<stop  offset="0" style="stop-color:#8DC449"/>
		<stop  offset="1" style="stop-color:#00673A"/>
	</linearGradient>
	<path class="st7" d="M310.8,32.9L299.6,11h1.5l10.4,20.3L321.8,11h1.5l-11.2,21.9v11.5h-1.4V32.9H310.8z"/>
</g>
<g>
	<path class="st0" d="M9.8,62.5v-9h4.8v1.2h-3.5v2.6h3.5v1.2h-3.5v2.7h3.5v1.2H9.8z"/>
	<path class="st0" d="M24,62.5L21.8,59l-2.3,3.4H18l3-4.5l-3-4.5h1.6l2.2,3.4l2.2-3.4h1.6l-3,4.5l3,4.5H24z"/>
	<path class="st0" d="M29,62.5v-9h2.6c1.9,0,3.2,1,3.2,2.7s-1.2,2.7-3.1,2.7h-1.3v3.5H29z M31.6,57.7c1.2,0,1.8-0.5,1.8-1.5
		c0-1-0.7-1.5-1.9-1.5h-1.3v3H31.6z"/>
	<path class="st0" d="M38.3,62.5v-9h4.8v1.2h-3.5v2.6h3.5v1.2h-3.5v2.7h3.5v1.2H38.3z"/>
	<path class="st0" d="M51.4,62.5l-3-4.2h0v4.2h-1.3v-9H50c2.2,0,3.1,1.1,3.1,3c0,1.7-1.3,2.6-2.6,2.6l2.5,3.3H51.4z M49.4,58.1
		c1.5,0,2.4-0.6,2.4-1.8c0-1-0.8-1.7-2-1.7h-1.4v3.4H49.4z"/>
	<path class="st0" d="M57.9,62.5v-7.8h-1.7v-1.2H61v1.2h-1.7v7.8H57.9z"/>
	<path class="st0" d="M67.8,55.8c0-0.8-0.5-1.3-1.3-1.3c-0.6,0-1.2,0.6-1.2,1.2c0,0.6,0.4,1,1.3,1.3c1.9,0.6,2.7,1.3,2.7,2.9
		c0,1.6-1.2,2.7-2.8,2.7c-1.6,0-2.7-1.1-2.8-2.8h1.3c0,1,0.6,1.6,1.5,1.6c0.9,0,1.4-0.6,1.4-1.5c0-0.7-0.3-1.1-1.2-1.4
		C64.5,57.8,64,57,64,55.8c0-1.4,1.1-2.5,2.5-2.5c1.5,0,2.5,0.9,2.6,2.5H67.8z"/>
	<path class="st0" d="M79,62.5v-9h4.8v1.2h-3.5v2.6h3.5v1.2h-3.5v2.7h3.5v1.2H79z"/>
	<path class="st0" d="M93.7,62.5l-4.4-6.9h0v6.9h-1.3v-9h1.4l4.4,6.8h0v-6.8H95v9H93.7z"/>
	<path class="st0" d="M109.6,62.6c-2.5,0-4.6-2.1-4.6-4.6c0-2.8,2.1-4.8,4.6-4.8c2.7,0,4.7,2.1,4.7,4.6
		C114.3,60.6,112.2,62.6,109.6,62.6z M113,58c0-1.9-1.4-3.5-3.3-3.5c-2.4,0-3.4,2.1-3.4,3.4c0,1.8,1.3,3.5,3.4,3.5
		C111.8,61.4,113,59.6,113,58z"/>
	<path class="st0" d="M118.1,62.5v-9h2.6c1.9,0,3.2,1,3.2,2.7s-1.2,2.7-3.1,2.7h-1.3v3.5H118.1z M120.7,57.7c1.2,0,1.8-0.5,1.8-1.5
		c0-1-0.7-1.5-1.9-1.5h-1.3v3H120.7z"/>
	<path class="st0" d="M128.3,62.5v-7.8h-1.7v-1.2h4.8v1.2h-1.7v7.8H128.3z"/>
	<path class="st0" d="M134.9,62.5v-9h1.3v9H134.9z"/>
	<path class="st0" d="M148.7,62.5v-7.6h0l-3,7.6h-0.8l-3-7.6h0v7.6h-1.3v-9h2.1l2.7,6.9l2.7-6.9h2.1v9H148.7z"/>
	<path class="st0" d="M154.3,62.5v-9h1.3v9H154.3z"/>
	<path class="st0" d="M163.3,55.8c0-0.8-0.5-1.3-1.3-1.3c-0.6,0-1.2,0.6-1.2,1.2c0,0.6,0.4,1,1.3,1.3c1.9,0.6,2.7,1.3,2.7,2.9
		c0,1.6-1.2,2.7-2.8,2.7c-1.6,0-2.7-1.1-2.8-2.8h1.3c0,1,0.6,1.6,1.5,1.6c0.9,0,1.4-0.6,1.4-1.5c0-0.7-0.3-1.1-1.2-1.4
		c-2.2-0.8-2.7-1.5-2.7-2.8c0-1.4,1.1-2.5,2.5-2.5c1.5,0,2.5,0.9,2.6,2.5H163.3z"/>
	<path class="st0" d="M174.3,62.5l-1-2.6h-3.2l-1,2.6h-1.4l3.4-9h1.2l3.4,9H174.3z M171.8,55.2L171.8,55.2l-1.2,3.4h2.3L171.8,55.2z
		"/>
	<path class="st0" d="M179.9,62.5v-7.8h-1.7v-1.2h4.8v1.2h-1.7v7.8H179.9z"/>
	<path class="st0" d="M186.4,62.5v-9h1.3v9H186.4z"/>
	<path class="st0" d="M196.2,62.6c-2.5,0-4.6-2.1-4.6-4.6c0-2.8,2.1-4.8,4.6-4.8c2.7,0,4.7,2.1,4.7,4.6
		C200.9,60.6,198.8,62.6,196.2,62.6z M199.6,58c0-1.9-1.4-3.5-3.3-3.5c-2.4,0-3.4,2.1-3.4,3.4c0,1.8,1.3,3.5,3.4,3.5
		C198.4,61.4,199.6,59.6,199.6,58z"/>
	<path class="st0" d="M210.6,62.5l-4.4-6.9h0v6.9h-1.3v-9h1.4l4.4,6.8h0v-6.8h1.3v9H210.6z"/>
	<path class="st0" d="M222.2,62.5v-9h4.8v1.2h-3.5v2.6h3.5v1.2h-3.5v2.7h3.5v1.2H222.2z M223.7,53l-0.5-0.9l2.7-1.6l0.5,1L223.7,53z
		"/>
	<path class="st0" d="M236.9,62.5l-4.4-6.9h0v6.9h-1.3v-9h1.4l4.4,6.8h0v-6.8h1.3v9H236.9z"/>
	<path class="st0" d="M242.4,62.5v-9h4.8v1.2h-3.5v2.6h3.5v1.2h-3.5v2.7h3.5v1.2H242.4z"/>
	<path class="st0" d="M255.5,62.5l-3-4.2h0v4.2h-1.3v-9h2.9c2.2,0,3.1,1.1,3.1,3c0,1.7-1.3,2.6-2.6,2.6l2.5,3.3H255.5z M253.5,58.1
		c1.5,0,2.4-0.6,2.4-1.8c0-1-0.8-1.7-2-1.7h-1.4v3.4H253.5z"/>
	<path class="st0" d="M264.2,59.2V58h5.7c-0.1,3-2.3,4.6-4.7,4.6c-2.4,0-4.5-2.1-4.5-4.5c0-2.9,2.2-4.8,4.5-4.8
		c1.7,0,3.2,0.8,4.1,2.4h-1.5c-0.8-0.9-1.5-1.2-2.5-1.2c-1.7,0-3.3,1.6-3.3,3.4c0,1.9,1.5,3.5,3.3,3.5c1.4,0,2.6-0.8,3.1-2.2H264.2z
		"/>
	<path class="st0" d="M273.5,62.5v-9h4.8v1.2h-3.5v2.6h3.5v1.2h-3.5v2.7h3.5v1.2H273.5z M275,53l-0.5-0.9l2.7-1.6l0.5,1L275,53z"/>
	<path class="st0" d="M283.3,62.5v-7.8h-1.7v-1.2h4.8v1.2h-1.7v7.8H283.3z"/>
	<path class="st0" d="M289.9,62.5v-9h1.3v9H289.9z"/>
	<path class="st0" d="M304.5,62.6c-0.8,0-1.5-0.2-2.3-0.7c-0.8,0.5-1.7,0.7-2.7,0.7c-2.5,0-4.5-2.2-4.5-4.6c0-2.8,2.1-4.7,4.6-4.7
		c2.6,0,4.7,2,4.7,4.7c0,1.1-0.3,2.1-1.1,3.1c0.4,0.2,0.7,0.3,1.2,0.3h0.1V62.6z M303,58c0-1.8-1.5-3.5-3.2-3.5
		c-2,0-3.4,1.6-3.4,3.5c0,0.3,0,0.6,0.1,0.9c0.5-0.2,1.1-0.3,1.7-0.3c1.3,0,2.6,0.6,3.9,1.7C302.7,59.6,303,58.9,303,58z
		 M298.1,59.8c-0.3,0-0.7,0-1,0.2c0.6,0.9,1.6,1.4,2.7,1.4c0.5,0,0.9-0.1,1.4-0.4C299.9,60.2,299,59.8,298.1,59.8z"/>
	<path class="st0" d="M312.8,53.5h1.3v6.1c0,1.9-1.3,3-3,3c-1.7,0-3-1.1-3-3v-6.1h1.3v6c0,1.1,0.6,1.9,1.7,1.9
		c1.1,0,1.7-0.8,1.7-1.9V53.5z"/>
	<path class="st0" d="M318.3,62.5v-9h4.8v1.2h-3.5v2.6h3.5v1.2h-3.5v2.7h3.5v1.2H318.3z"/>
</g>
</svg>
