<?xml version="1.0" encoding="utf-8"?>
<!-- Generator: Adobe Illustrator 26.0.2, SVG Export Plug-In . SVG Version: 6.00 Build 0)  -->
<svg version="1.1" id="Calque_1" xmlns="http://www.w3.org/2000/svg" xmlns:xlink="http://www.w3.org/1999/xlink" x="0px" y="0px"
	 viewBox="0 0 314.2 52.3" style="enable-background:new 0 0 314.2 52.3;" xml:space="preserve">
<style type="text/css">
	.st0{fill:#52656F;}
	.st1{fill:url(#SVGID_1_);}
	.st2{fill:url(#SVGID_00000181768625219607636810000017016190797318800042_);}
	.st3{fill:url(#SVGID_00000106867625955680207170000008338167917303736220_);}
	.st4{fill:url(#SVGID_00000179605135698331622430000012801621248098050444_);}
	.st5{fill:url(#SVGID_00000012445469541860494410000013845603705761134258_);}
	.st6{fill:url(#SVGID_00000129167983646355737000000015809988875151285641_);}
	.st7{fill:url(#SVGID_00000089541886883826961520000002299296557920027788_);}
</style>
<path class="st0" d="M0,1h9.8l12.8,18.8V1h9.9v34h-9.9L9.9,16.4v18.7H0V1z"/>
<path class="st0" d="M39.5,1h28.2v7.3H50.1v5.4h16.4v7H50.1v6.7h18.2v7.7H39.5V1z"/>
<path class="st0" d="M71.6,1h11.6l6,10.5L95.1,1h11.5L95.9,17.5l11.6,17.6H95.7L89,24.2l-6.7,10.9H70.5l11.7-17.7L71.6,1z"/>
<linearGradient id="SVGID_1_" gradientUnits="userSpaceOnUse" x1="70.2273" y1="-1080" x2="95.6273" y2="-1080" gradientTransform="matrix(1 0 0 -1 0 -1061.9999)">
	<stop  offset="0" style="stop-color:#8DC449"/>
	<stop  offset="1" style="stop-color:#00673A"/>
</linearGradient>
<path class="st1" d="M95.6,17.5L82,35H70.2l11.7-17.7L71.3,1h11.6L95.6,17.5"/>
<path class="st0" d="M108.5,1h32v8.4h-10.7V35h-10.5V9.4h-10.7V1C108.6,1,108.5,1,108.5,1z"/>
<g>
	
		<linearGradient id="SVGID_00000119104144048157754460000013762122131711211157_" gradientUnits="userSpaceOnUse" x1="156" y1="-1067.0608" x2="156" y2="-1093.7598" gradientTransform="matrix(1 0 0 -1 0 -1061.9999)">
		<stop  offset="0" style="stop-color:#8DC449"/>
		<stop  offset="1" style="stop-color:#00673A"/>
	</linearGradient>
	<path style="fill:url(#SVGID_00000119104144048157754460000013762122131711211157_);" d="M146.8,0.8h18.4V2h-17v14.7h17v1.2h-17v15
		h17v1.2h-18.4V0.8z"/>
	
		<linearGradient id="SVGID_00000017498089653847498710000013728621979042670263_" gradientUnits="userSpaceOnUse" x1="184.8" y1="-1067.0608" x2="184.8" y2="-1093.7598" gradientTransform="matrix(1 0 0 -1 0 -1061.9999)">
		<stop  offset="0" style="stop-color:#8DC449"/>
		<stop  offset="1" style="stop-color:#00673A"/>
	</linearGradient>
	<path style="fill:url(#SVGID_00000017498089653847498710000013728621979042670263_);" d="M196.6,32.3V0.8h1.4v33.3h-1.7L173,2.1v32
		h-1.4V0.8h2L196.6,32.3z"/>
	
		<linearGradient id="SVGID_00000139288211284151377460000001527821069924518582_" gradientUnits="userSpaceOnUse" x1="214.1" y1="-1067.0608" x2="214.1" y2="-1093.7598" gradientTransform="matrix(1 0 0 -1 0 -1061.9999)">
		<stop  offset="0" style="stop-color:#8DC449"/>
		<stop  offset="1" style="stop-color:#00673A"/>
	</linearGradient>
	<path style="fill:url(#SVGID_00000139288211284151377460000001527821069924518582_);" d="M204.9,0.8h18.4V2h-17v14.7h17v1.2h-17v15
		h17v1.2h-18.4V0.8z"/>
	
		<linearGradient id="SVGID_00000029763746036533441620000002137962481673715332_" gradientUnits="userSpaceOnUse" x1="239.8553" y1="-1067.0608" x2="239.8553" y2="-1093.7598" gradientTransform="matrix(1 0 0 -1 0 -1061.9999)">
		<stop  offset="0" style="stop-color:#8DC449"/>
		<stop  offset="1" style="stop-color:#00673A"/>
	</linearGradient>
	<path style="fill:url(#SVGID_00000029763746036533441620000002137962481673715332_);" d="M229.2,0.8h7.6c5.2,0,7.3,0.5,8.9,1.4
		c2.7,1.4,4.8,5,4.8,8.9c0.1,2.1-0.5,4.7-2.1,6.8c-2.4,3.2-5.2,3.6-9,3.7l9,12.6h-1.7l-9.8-13.9h1c2.4,0,6.4,0,8.6-2.1
		c2.1-2.2,2.9-4.5,2.9-7.1c0-2.9-1.4-6.1-4-7.8c-2-1.3-4.5-1.4-8.4-1.4h-6.3V34h-1.4V0.8H229.2z"/>
	
		<linearGradient id="SVGID_00000042710712694367521760000005958788040776646026_" gradientUnits="userSpaceOnUse" x1="270.6" y1="-1067.0608" x2="270.6" y2="-1093.7598" gradientTransform="matrix(1 0 0 -1 0 -1061.9999)">
		<stop  offset="0" style="stop-color:#8DC449"/>
		<stop  offset="1" style="stop-color:#00673A"/>
	</linearGradient>
	<path style="fill:url(#SVGID_00000042710712694367521760000005958788040776646026_);" d="M284,8.2c-1.4-1.8-2.9-3.2-4.7-4.3
		c-2.6-1.6-5.6-2.5-8.9-2.5c-8.9,0-16,6.8-16,16s7.1,16,16,16c4.3,0,8-1.5,10.8-3.8c2.9-2.3,4.8-5.4,5.4-8.5h-20v-1.2h21.6
		c-0.2,1.7-0.7,3.4-1.4,4.9c-2.8,5.7-9,9.8-16.4,9.8c-9.6,0-17.4-7.3-17.4-17.3S260.8,0,270.4,0c6.2,0,12.2,3,15.2,8H284V8.2z"/>
	
		<linearGradient id="SVGID_00000165951756032731853410000014201321014842373002_" gradientUnits="userSpaceOnUse" x1="302.35" y1="-1067.0608" x2="302.35" y2="-1093.7598" gradientTransform="matrix(1 0 0 -1 0 -1061.9999)">
		<stop  offset="0" style="stop-color:#8DC449"/>
		<stop  offset="1" style="stop-color:#00673A"/>
	</linearGradient>
	<path style="fill:url(#SVGID_00000165951756032731853410000014201321014842373002_);" d="M301.7,22.6L290.5,0.7h1.5L302.4,21
		l10.3-20.3h1.5L303,22.6v11.5h-1.4V22.6H301.7z"/>
</g>
<g>
	<path class="st0" d="M0,52.2v-9h4.8v1.2H1.3V47h3.5v1.2H1.3v2.7h3.5v1.2L0,52.2L0,52.2z"/>
	<path class="st0" d="M14.2,52.2L12,48.7l-2.3,3.4H8.2l3-4.5l-3-4.5h1.6l2.2,3.4l2.2-3.4h1.6l-3,4.5l3,4.5L14.2,52.2L14.2,52.2z"/>
	<path class="st0" d="M19.2,52.2v-9h2.6c1.9,0,3.2,1,3.2,2.7s-1.2,2.7-3.1,2.7h-1.3v3.5L19.2,52.2L19.2,52.2z M21.8,47.4
		c1.2,0,1.8-0.5,1.8-1.5s-0.7-1.5-1.9-1.5h-1.3v3H21.8z"/>
	<path class="st0" d="M28.6,52.2v-9h4.8v1.2h-3.5V47h3.5v1.2h-3.5v2.7h3.5v1.2L28.6,52.2L28.6,52.2z"/>
	<path class="st0" d="M41.7,52.2l-3-4.2l0,0v4.2h-1.3v-9h2.9c2.2,0,3.1,1.1,3.1,3c0,1.7-1.3,2.6-2.6,2.6l2.5,3.3h-1.6
		C41.7,52.1,41.7,52.2,41.7,52.2z M39.7,47.8c1.5,0,2.4-0.6,2.4-1.8c0-1-0.8-1.7-2-1.7h-1.4v3.4L39.7,47.8L39.7,47.8z"/>
	<path class="st0" d="M48.2,52.2v-7.8h-1.7v-1.2h4.8v1.2h-1.7v7.8H48.2z"/>
	<path class="st0" d="M58.1,45.5c0-0.8-0.5-1.3-1.3-1.3c-0.6,0-1.2,0.6-1.2,1.2c0,0.6,0.4,1,1.3,1.3c1.9,0.6,2.7,1.3,2.7,2.9
		c0,1.6-1.2,2.7-2.8,2.7c-1.6,0-2.7-1.1-2.8-2.8h1.3c0,1,0.6,1.6,1.5,1.6c0.9,0,1.4-0.6,1.4-1.5c0-0.7-0.3-1.1-1.2-1.4
		c-2.2-0.7-2.7-1.5-2.7-2.7c0-1.4,1.1-2.5,2.5-2.5c1.5,0,2.5,0.9,2.6,2.5H58.1z"/>
	<path class="st0" d="M69.4,52.2v-9h4.8v1.2h-3.5V47h3.5v1.2h-3.5v2.7h3.5v1.2L69.4,52.2L69.4,52.2z"/>
	<path class="st0" d="M84.1,52.2l-4.4-6.9l0,0v6.9h-1.3v-9h1.4l4.4,6.8l0,0v-6.8h1.2v9H84.1z"/>
	<path class="st0" d="M100,52.3c-2.5,0-4.6-2.1-4.6-4.6c0-2.8,2.1-4.8,4.6-4.8c2.7,0,4.7,2.1,4.7,4.6
		C104.7,50.3,102.6,52.3,100,52.3z M103.4,47.7c0-1.9-1.4-3.5-3.3-3.5c-2.4,0-3.4,2.1-3.4,3.4c0,1.8,1.3,3.5,3.4,3.5
		C102.2,51.1,103.4,49.3,103.4,47.7z"/>
	<path class="st0" d="M108.5,52.2v-9h2.6c1.9,0,3.2,1,3.2,2.7s-1.2,2.7-3.1,2.7h-1.3v3.5L108.5,52.2L108.5,52.2z M111.1,47.4
		c1.2,0,1.8-0.5,1.8-1.5s-0.7-1.5-1.9-1.5h-1.3v3H111.1z"/>
	<path class="st0" d="M118.8,52.2v-7.8h-1.7v-1.2h4.8v1.2h-1.7v7.8H118.8z"/>
	<path class="st0" d="M125.4,52.2v-9h1.3v9H125.4z"/>
	<path class="st0" d="M139.2,52.2v-7.6l0,0l-3,7.6h-0.8l-3-7.6l0,0v7.6h-1.3v-9h2.1l2.7,6.9l2.7-6.9h2.1v9H139.2z"/>
	<path class="st0" d="M144.8,52.2v-9h1.3v9H144.8z"/>
	<path class="st0" d="M153.8,45.5c0-0.8-0.5-1.3-1.3-1.3c-0.6,0-1.2,0.6-1.2,1.2c0,0.6,0.4,1,1.3,1.3c1.9,0.6,2.7,1.3,2.7,2.9
		c0,1.6-1.2,2.7-2.8,2.7s-2.7-1.1-2.8-2.8h1.3c0,1,0.6,1.6,1.5,1.6s1.4-0.6,1.4-1.5c0-0.7-0.3-1.1-1.2-1.4c-2.2-0.8-2.7-1.5-2.7-2.8
		c0-1.4,1.1-2.5,2.5-2.5c1.5,0,2.5,0.9,2.6,2.5L153.8,45.5L153.8,45.5z"/>
	<path class="st0" d="M164.9,52.2l-1-2.6h-3.2l-1,2.6h-1.4l3.4-9h1.2l3.4,9H164.9z M162.4,44.9L162.4,44.9l-1.2,3.4h2.3L162.4,44.9z
		"/>
	<path class="st0" d="M170.5,52.2v-7.8h-1.7v-1.2h4.8v1.2h-1.7v7.8H170.5z"/>
	<path class="st0" d="M177,52.2v-9h1.3v9H177z"/>
	<path class="st0" d="M186.8,52.3c-2.5,0-4.6-2.1-4.6-4.6c0-2.8,2.1-4.8,4.6-4.8c2.7,0,4.7,2.1,4.7,4.6
		C191.5,50.3,189.4,52.3,186.8,52.3z M190.2,47.7c0-1.9-1.4-3.5-3.3-3.5c-2.4,0-3.4,2.1-3.4,3.4c0,1.8,1.3,3.5,3.4,3.5
		C189,51.1,190.2,49.3,190.2,47.7z"/>
	<path class="st0" d="M201.2,52.2l-4.4-6.9l0,0v6.9h-1.3v-9h1.4l4.4,6.8l0,0v-6.8h1.3v9H201.2z"/>
	<path class="st0" d="M212.9,52.2v-9h4.8v1.2h-3.5V47h3.5v1.2h-3.5v2.7h3.5v1.2L212.9,52.2L212.9,52.2z M214.4,42.7l-0.5-0.9
		l2.7-1.6l0.5,1L214.4,42.7z"/>
	<path class="st0" d="M227.6,52.2l-4.4-6.9l0,0v6.9h-1.3v-9h1.4l4.4,6.8l0,0v-6.8h1.3v9H227.6z"/>
	<path class="st0" d="M233.1,52.2v-9h4.8v1.2h-3.5V47h3.5v1.2h-3.5v2.7h3.5v1.2L233.1,52.2L233.1,52.2z"/>
	<path class="st0" d="M246.2,52.2l-3-4.2l0,0v4.2h-1.3v-9h2.9c2.2,0,3.1,1.1,3.1,3c0,1.7-1.3,2.6-2.6,2.6l2.5,3.3h-1.6L246.2,52.2
		L246.2,52.2z M244.2,47.8c1.5,0,2.4-0.6,2.4-1.8c0-1-0.8-1.7-2-1.7h-1.4v3.4L244.2,47.8L244.2,47.8z"/>
	<path class="st0" d="M255,48.9v-1.2h5.7c-0.1,3-2.3,4.6-4.7,4.6c-2.4,0-4.5-2.1-4.5-4.5c0-2.9,2.2-4.8,4.5-4.8
		c1.7,0,3.2,0.8,4.1,2.4h-1.5c-0.8-0.9-1.5-1.2-2.5-1.2c-1.7,0-3.3,1.6-3.3,3.4c0,1.9,1.5,3.5,3.3,3.5c1.4,0,2.6-0.8,3.1-2.2H255z"
		/>
	<path class="st0" d="M264.3,52.2v-9h4.8v1.2h-3.5V47h3.5v1.2h-3.5v2.7h3.5v1.2L264.3,52.2L264.3,52.2z M265.8,42.7l-0.5-0.9
		l2.7-1.6l0.5,1L265.8,42.7z"/>
	<path class="st0" d="M274.1,52.2v-7.8h-1.7v-1.2h4.8v1.2h-1.7v7.8H274.1z"/>
	<path class="st0" d="M280.7,52.2v-9h1.3v9H280.7z"/>
	<path class="st0" d="M295.4,52.3c-0.8,0-1.5-0.2-2.3-0.7c-0.8,0.5-1.7,0.7-2.7,0.7c-2.5,0-4.5-2.2-4.5-4.6c0-2.8,2.1-4.7,4.6-4.7
		c2.6,0,4.7,2,4.7,4.7c0,1.1-0.3,2.1-1.1,3.1c0.4,0.2,0.7,0.3,1.2,0.3h0.1L295.4,52.3L295.4,52.3z M293.9,47.7
		c0-1.8-1.5-3.5-3.2-3.5c-2,0-3.4,1.6-3.4,3.5c0,0.3,0,0.6,0.1,0.9c0.5-0.2,1.1-0.3,1.7-0.3c1.3,0,2.6,0.6,3.9,1.7
		C293.6,49.3,293.9,48.6,293.9,47.7z M288.9,49.5c-0.3,0-0.7,0-1,0.2c0.6,0.9,1.6,1.4,2.7,1.4c0.5,0,0.9-0.1,1.4-0.4
		C290.7,49.9,289.8,49.5,288.9,49.5z"/>
	<path class="st0" d="M303.7,43.2h1.3v6.1c0,1.9-1.3,3-3,3c-1.7,0-3-1.1-3-3v-6.1h1.3v6c0,1.1,0.6,1.9,1.7,1.9
		c1.1,0,1.7-0.8,1.7-1.9V43.2z"/>
	<path class="st0" d="M309.2,52.2v-9h4.8v1.2h-3.5V47h3.5v1.2h-3.5v2.7h3.5v1.2L309.2,52.2L309.2,52.2z"/>
</g>
</svg>
