<svg xmlns="http://www.w3.org/2000/svg" width="343.8" height="41.9" viewBox="0 0 343.8 41.9">
  <g id="numero-vert" transform="translate(-125.6 -399.1)">
    <g id="Groupe_282" data-name="Groupe 282">
      <rect id="Rectangle_33" data-name="Rectangle 33" width="343.8" height="39.8" transform="translate(125.6 400.1)" fill="#fff"/>
      <path id="Tracé_265" data-name="Tracé 265" d="M468.3,401.2v37.6H126.7V401.2H468.3m1.1-1.1H125.6V440H469.4V400.1Z" fill="#a7a9ac"/>
    </g>
    <text id="_0_805_037_555" data-name="0 805 037 555" transform="translate(134.486 430.781)" fill="#74bd4c" font-size="29.585" font-family="Arial-BoldMT, Arial" font-weight="700"><tspan x="0" y="0">0 805 037 555</tspan></text>
    <path id="Tracé_266" data-name="Tracé 266" d="M331.4,399.1v10.4L342,420l-10.6,10.6V441H458.9V399.1Z" fill="#74bd4c"/>
    <g id="Groupe_284" data-name="Groupe 284">
      <g id="Groupe_283" data-name="Groupe 283">
        <path id="Tracé_267" data-name="Tracé 267" d="M347.2,407.7c0-2.4,1.3-3,2.9-3.1a14.728,14.728,0,0,1,4.1.5v1.8c-.9-.1-3-.2-3.6-.2-.9,0-1.4,0-1.4,1.2v.6c0,.9.3,1.1,1.2,1.1h1.7c2.1,0,2.5,1.8,2.5,3.2v.8c0,2.7-1.5,3.2-3,3.2a11.734,11.734,0,0,1-4.1-.5v-1.8a32.621,32.621,0,0,0,3.7.2c.6,0,1.3-.1,1.3-1V413c0-.7-.2-1.1-1-1.1H350c-2.6,0-2.8-2.1-2.8-3.2Z" fill="#fff"/>
        <path id="Tracé_268" data-name="Tracé 268" d="M359.1,408c2.2,0,3.3.3,3.3,3.1a1.958,1.958,0,0,1-2.2,2.2h-2.5c0,1.6.5,1.7,1.6,1.7a13.677,13.677,0,0,0,2.9-.2v1.5a10.746,10.746,0,0,1-4,.5c-2,0-2.6-1.3-2.6-4.4C355.7,408.6,356.6,408,359.1,408Zm.6,3.6a.53.53,0,0,0,.6-.6c0-1.1-.1-1.3-1.1-1.3-1.1,0-1.5.1-1.5,1.9Z" fill="#fff"/>
        <path id="Tracé_269" data-name="Tracé 269" d="M363.5,408h1.7l.3,1.1a3.048,3.048,0,0,1,2.2-1.2,2.483,2.483,0,0,1,.9.1v2.2h-1.1a2.119,2.119,0,0,0-2,1v5.5h-2.1V408Z" fill="#fff"/>
        <path id="Tracé_270" data-name="Tracé 270" d="M371.3,408l1.7,6,1.8-6H377l-2.8,8.6h-2.3l-2.7-8.6Z" fill="#fff"/>
        <path id="Tracé_271" data-name="Tracé 271" d="M377.7,405.3a.366.366,0,0,1,.4-.4h1.5c.2,0,.3.2.3.4v1.4c0,.2-.1.4-.3.4h-1.5a.366.366,0,0,1-.4-.4Zm.1,2.7h2.1v8.6h-2.1Z" fill="#fff"/>
        <path id="Tracé_272" data-name="Tracé 272" d="M383.6,407.9a13.339,13.339,0,0,1,3.6.5v1.4s-1.4-.1-2.7-.1c-.9,0-1.4.1-1.4,2.6,0,2.2.3,2.5,1.4,2.5a24.976,24.976,0,0,0,2.8-.2V416a9.286,9.286,0,0,1-3.7.6c-1.5,0-2.6-.8-2.6-4.4C381,408.8,382.1,407.9,383.6,407.9Z" fill="#fff"/>
        <path id="Tracé_273" data-name="Tracé 273" d="M391.4,408c2.2,0,3.3.3,3.3,3.1a1.958,1.958,0,0,1-2.2,2.2H390c0,1.6.5,1.7,1.6,1.7a13.677,13.677,0,0,0,2.9-.2v1.5a10.746,10.746,0,0,1-4,.5c-2,0-2.6-1.3-2.6-4.4C388,408.6,388.9,408,391.4,408Zm.6,3.6a.53.53,0,0,0,.6-.6c0-1.1-.1-1.3-1.1-1.3-1.1,0-1.5.1-1.5,1.9Z" fill="#fff"/>
        <path id="Tracé_274" data-name="Tracé 274" d="M400.4,410.7l1-1-.8-1.2a2.334,2.334,0,0,1,1.2-3.7,8.806,8.806,0,0,1,4.1.3v1.7h-2.4c-1.1,0-1.2.5-.5,1.6l2.5,3.8,1.8-1.9.7,1-1,1.7-.6.7,2,3H406l-1-1.6-1,.9a2.8,2.8,0,0,1-4.3-.7A3.529,3.529,0,0,1,400.4,410.7Zm2.8,3.6.7-.8-1.5-2.2-.8.7a1.356,1.356,0,0,0-.2,2C401.8,414.6,402.5,415,403.2,414.3Z" fill="#fff"/>
        <path id="Tracé_275" data-name="Tracé 275" d="M412.8,413.7a2.127,2.127,0,0,1,2.3-2.4h2.3v-.6c0-.9-.4-1.1-1-1.1-.7,0-2.6.1-3.3.2v-1.4a9.146,9.146,0,0,1,3.5-.6c1.7,0,2.8.6,2.8,2.8v6h-1.6l-.4-1a3.151,3.151,0,0,1-2.4,1,2.173,2.173,0,0,1-2.2-2.3v-.6Zm2.8,1.2a3.482,3.482,0,0,0,1.8-.7v-1.6l-1.9.2c-.5.1-.6.5-.6.9v.4C414.9,414.9,415.2,414.9,415.6,414.9Z" fill="#fff"/>
        <path id="Tracé_276" data-name="Tracé 276" d="M420.7,408h1.7l.4.9a4.088,4.088,0,0,1,2.4-1c1.9,0,2.5,1.8,2.5,4.4,0,2.5-.4,4.5-2.5,4.5a5.657,5.657,0,0,1-2.4-.6V421h-2V408Zm3.8,7c.6,0,1-.4,1-2.6,0-1.9-.4-2.5-1-2.5a2.969,2.969,0,0,0-1.8.5v4.3A4.844,4.844,0,0,0,424.5,415Z" fill="#fff"/>
        <path id="Tracé_277" data-name="Tracé 277" d="M428.8,408h1.7l.4.9a4.088,4.088,0,0,1,2.4-1c1.9,0,2.5,1.8,2.5,4.4,0,2.5-.4,4.5-2.5,4.5a5.657,5.657,0,0,1-2.4-.6V421h-2V408Zm3.9,7c.6,0,1-.4,1-2.6,0-1.9-.4-2.5-1-2.5a2.969,2.969,0,0,0-1.8.5v4.3A4.844,4.844,0,0,0,432.7,415Z" fill="#fff"/>
        <path id="Tracé_278" data-name="Tracé 278" d="M440.2,408c2.2,0,3.3.3,3.3,3.1a1.958,1.958,0,0,1-2.2,2.2h-2.5c0,1.6.5,1.7,1.6,1.7a13.677,13.677,0,0,0,2.9-.2v1.5a10.746,10.746,0,0,1-4,.5c-2,0-2.6-1.3-2.6-4.4C436.8,408.6,437.8,408,440.2,408Zm.6,3.6a.53.53,0,0,0,.6-.6c0-1.1-.1-1.3-1.1-1.3-1.1,0-1.5.1-1.5,1.9Z" fill="#fff"/>
        <path id="Tracé_279" data-name="Tracé 279" d="M444.6,403.9h2.1v9.3c0,1.3.3,1.5.7,1.7,0,0,.9.3,1,.3v1.4h-1.7c-1.3,0-2-.8-2-3.1v-9.6Z" fill="#fff"/>
        <path id="Tracé_280" data-name="Tracé 280" d="M347.9,429.7a3.244,3.244,0,0,1-.9-2.4c0-2.1.9-3.1,2.7-3.1h4.7v1.4l-.9.3a4.638,4.638,0,0,1,.3,1.7,2.591,2.591,0,0,1-2.7,2.9h-1.8c-.2,0-.6,0-.6.4s.3.4.6.4h2.4c1.4,0,2.3.8,2.3,2.6v.9a2.22,2.22,0,0,1-2.4,2.5h-2.2a2.237,2.237,0,0,1-2.4-2.5v-1.1l.7-.8a1.872,1.872,0,0,1,.2-3.2Zm2.1-1h.8c.8,0,1-.6,1-1.3,0-.9-.3-1.2-1-1.2H350c-.8,0-1,.6-1,1.2C349.1,428.1,349.3,428.7,350,428.7Zm0,6.8h1.2c.7,0,.8-.4.8-.9V434c0-.5-.2-.8-.8-.8h-1.6a2.18,2.18,0,0,1-.6-.1v1.4C349.1,435.4,349.5,435.5,350,435.5Z" fill="#fff"/>
        <path id="Tracé_281" data-name="Tracé 281" d="M355.3,424.3H357l.3,1.1a3.048,3.048,0,0,1,2.2-1.2,2.483,2.483,0,0,1,.9.1v2.2h-1.1a2.119,2.119,0,0,0-2,1V433h-2.1v-8.7Z" fill="#fff"/>
        <path id="Tracé_282" data-name="Tracé 282" d="M361.2,429.9a2.127,2.127,0,0,1,2.3-2.4h2.3v-.6c0-.9-.4-1.1-1-1.1-.7,0-2.6.1-3.3.2v-1.4a9.146,9.146,0,0,1,3.5-.6c1.7,0,2.8.6,2.8,2.8v6h-1.6l-.4-1a3.151,3.151,0,0,1-2.4,1,2.173,2.173,0,0,1-2.2-2.3v-.6Zm2.8,1.3a3.482,3.482,0,0,0,1.8-.7V429l-1.9.2c-.5.1-.6.5-.6.9v.4C363.3,431.1,363.6,431.2,364,431.2Z" fill="#fff"/>
        <path id="Tracé_283" data-name="Tracé 283" d="M368.6,424.8l1.3-.5.3-2.4h1.7v2.4h1.7V426h-1.7v3.5c0,1.3.3,1.5.7,1.7,0,0,.9.3,1,.3v1.4h-1.8c-1.2,0-1.9-.8-1.9-3.1V426h-1.3v-1.2Z" fill="#fff"/>
        <path id="Tracé_284" data-name="Tracé 284" d="M374.5,424.3h2.1v5.8c0,.9.3,1.2.9,1.2a2.64,2.64,0,0,0,1.9-.7v-6.2h2.1V433h-1.6l-.4-.9a4.127,4.127,0,0,1-2.5,1.1c-1.8,0-2.3-1.4-2.3-3v-5.9Z" fill="#fff"/>
        <path id="Tracé_285" data-name="Tracé 285" d="M382.6,421.6a.366.366,0,0,1,.4-.4h1.5c.2,0,.3.2.3.4V423c0,.2-.1.4-.3.4H383a.366.366,0,0,1-.4-.4Zm0,2.7h2.1v8.6h-2.1Z" fill="#fff"/>
        <path id="Tracé_286" data-name="Tracé 286" d="M385.6,424.8l1.3-.5.3-2.4h1.7v2.4h1.7V426h-1.7v3.5c0,1.3.3,1.5.7,1.7,0,0,.9.3,1,.3v1.4h-1.8c-1.2,0-1.9-.8-1.9-3.1V426h-1.3v-1.2Z" fill="#fff"/>
        <path id="Tracé_287" data-name="Tracé 287" d="M391.4,426.5c0-1.3.5-2.3,2-2.3a15.161,15.161,0,0,1,4.2.4V426H394c-.5,0-.6.2-.6.6v.4a.526.526,0,0,0,.6.6h1.8a1.968,1.968,0,0,1,2.1,2.2v.9c0,1.8-1,2.3-1.9,2.3-1.5,0-3.8-.1-4.3-.5v-1.4h3.7a.45.45,0,0,0,.5-.5v-.4c0-.4-.1-.6-.5-.6h-1.8c-1.4,0-2.2-.6-2.2-2.3v-.8Z" fill="#fff"/>
      </g>
    </g>
  </g>
</svg>
