<?xml version="1.0" encoding="utf-8"?>
<!-- Generator: Adobe Illustrator 25.1.0, SVG Export Plug-In . SVG Version: 6.00 Build 0)  -->
<svg version="1.1" id="Calque_1" xmlns="http://www.w3.org/2000/svg" xmlns:xlink="http://www.w3.org/1999/xlink" x="0px" y="0px"
	 viewBox="0 0 28.3 28.3" style="enable-background:new 0 0 28.3 28.3;" xml:space="preserve">
<style type="text/css">
	.st0{fill:#F27930;}
</style>
<g>
	<g>
		<path class="st0" d="M25.5,0.6c0.2,0.1,0.1,0.4-0.1,0.7L4.2,27.6c-0.2,0.2-0.5,0.3-0.6,0.2c-0.2-0.1-0.1-0.4,0.1-0.7L24.5,1.2"/>
	</g>
</g>
<g>
	<g>
		<path class="st0" d="M2.3,0.6C2.2,0.7,2.2,1,2.4,1.2l21.2,26.4c0.2,0.2,0.5,0.3,0.6,0.2c0.2-0.1,0.1-0.4-0.1-0.7L3.3,1.2"/>
	</g>
</g>
<g>
	<g>
		<path class="st0" d="M20.5,23.3H7.1c-0.2,0-0.4-0.2-0.4-0.4V6.6c0-0.2,0.2-0.4,0.4-0.4h1.8c0.2,0,0.4,0.2,0.4,0.4S9.1,7,8.9,7H7.5
			v15.6h12.7v-4.2c0-0.2,0.2-0.4,0.4-0.4s0.4,0.2,0.4,0.4V23C20.9,23.2,20.7,23.3,20.5,23.3z"/>
	</g>
	<g>
		<path class="st0" d="M20.5,21c-0.2,0-0.4-0.2-0.4-0.4V7h-1.5c-0.2,0-0.4-0.2-0.4-0.4s0.2-0.4,0.4-0.4h1.9c0.2,0,0.4,0.2,0.4,0.4
			v14C20.9,20.8,20.7,21,20.5,21z"/>
	</g>
	<g>
		<path class="st0" d="M17,9.1h-6.4c-0.6,0-1.2-0.5-1.2-1.2v-1c0-0.6,0.5-1.2,1.2-1.2h0.1c0-0.1,0-0.2,0-0.3c0-1.7,1.4-3.1,3.1-3.1
			s3.1,1.4,3.1,3.1c0,0.1,0,0.2,0,0.3H17c0.6,0,1.2,0.5,1.2,1.2V8C18.2,8.6,17.7,9.1,17,9.1z M10.6,6.4c-0.3,0-0.5,0.2-0.5,0.5V8
			c0,0.3,0.2,0.5,0.5,0.5H17c0.3,0,0.5-0.2,0.5-0.5V6.9c0-0.3-0.2-0.5-0.5-0.5h-0.6c-0.1,0-0.2,0-0.3-0.1C16,6.2,16,6.1,16,6
			c0-0.2,0.1-0.4,0.1-0.6C16.1,4.1,15,3,13.7,3s-2.4,1.1-2.4,2.4c0,0.2,0,0.4,0.1,0.6c0,0.1,0,0.2-0.1,0.3c-0.1,0.1-0.2,0.1-0.3,0.1
			H10.6z"/>
	</g>
	<g>
		<g>
			<path class="st0" d="M17.2,19.7L17.2,19.7L17.2,19.7z"/>
		</g>
	</g>
	<g>
		<path class="st0" d="M9.5,14.2c-0.1,0-0.2,0-0.2-0.1l-0.6-0.6c-0.1-0.1-0.1-0.4,0-0.5s0.4-0.1,0.5,0l0.3,0.3l1.7-1.7
			c0.1-0.1,0.4-0.1,0.5,0s0.1,0.4,0,0.5L9.8,14C9.7,14.2,9.6,14.2,9.5,14.2z"/>
	</g>
	<g>
		<path class="st0" d="M9.5,17.4c-0.1,0-0.2,0-0.2-0.1l-0.6-0.6c-0.1-0.1-0.1-0.4,0-0.5s0.4-0.1,0.5,0l0.3,0.3l1.7-1.7
			c0.1-0.1,0.4-0.1,0.5,0s0.1,0.4,0,0.5l-1.9,1.9C9.7,17.4,9.6,17.4,9.5,17.4z"/>
	</g>
	<g>
		<path class="st0" d="M9.5,20.6c-0.1,0-0.2,0-0.2-0.1l-0.6-0.6c-0.1-0.1-0.1-0.4,0-0.5s0.4-0.1,0.5,0l0.3,0.3l1.7-1.7
			c0.1-0.1,0.4-0.1,0.5,0s0.1,0.4,0,0.5l-1.9,1.9C9.7,20.5,9.6,20.6,9.5,20.6z"/>
	</g>
</g>
</svg>
