<?xml version="1.0" encoding="utf-8"?>
<!-- Generator: Adobe Illustrator 25.1.0, SVG Export Plug-In . SVG Version: 6.00 Build 0)  -->
<svg version="1.1" id="Calque_1" xmlns="http://www.w3.org/2000/svg" xmlns:xlink="http://www.w3.org/1999/xlink" x="0px" y="0px"
	 viewBox="0 0 28.3 28.3" style="enable-background:new 0 0 28.3 28.3;" xml:space="preserve">
<style type="text/css">
	.st0{fill:#F27930;}
</style>
<g>
	<g>
		<g>
			<g>
				<path class="st0" d="M14.3,17.3c-4.7,0-8.4-3.8-8.4-8.4c0-4.7,3.8-8.4,8.4-8.4c4.7,0,8.4,3.8,8.4,8.4S18.9,17.3,14.3,17.3z
					 M14.3,1.2c-4.2,0-7.7,3.4-7.7,7.7c0,4.2,3.4,7.7,7.7,7.7c4.2,0,7.7-3.4,7.7-7.7C21.9,4.6,18.5,1.2,14.3,1.2z"/>
			</g>
			<g>
				<path class="st0" d="M14.3,17.3c-0.1,0-0.1,0-0.2,0c-2.8-1.5-4.8-5-4.8-8.4s2-6.9,4.8-8.4c0.1-0.1,0.2-0.1,0.4,0
					c2.8,1.5,4.8,5,4.8,8.4s-2,6.9-4.8,8.4C14.4,17.3,14.3,17.3,14.3,17.3z M14.3,1.2c-2.4,1.4-4.2,4.6-4.2,7.6s1.8,6.2,4.2,7.6
					c2.4-1.4,4.2-4.6,4.2-7.6S16.7,2.6,14.3,1.2z"/>
			</g>
			<g>
				<path class="st0" d="M14.3,17.3c-0.2,0-0.4-0.2-0.4-0.4V0.8c0-0.2,0.2-0.4,0.4-0.4s0.4,0.2,0.4,0.4v16.1
					C14.7,17.1,14.5,17.3,14.3,17.3z"/>
			</g>
			<g>
				<path class="st0" d="M22.3,9.2h-2.1c-0.2,0-0.4-0.2-0.4-0.4s0.2-0.4,0.4-0.4h2.1c0.2,0,0.4,0.2,0.4,0.4S22.5,9.2,22.3,9.2z"/>
			</g>
			<g>
				<path class="st0" d="M22.3,9.2H6.2C6,9.2,5.8,9.1,5.8,8.8S6,8.5,6.2,8.5h16.1c0.2,0,0.4,0.2,0.4,0.4S22.5,9.2,22.3,9.2z"/>
			</g>
		</g>
	</g>
	<g>
		<g>
			<path class="st0" d="M15.6,27.9c-0.2,0-0.4,0-0.6-0.1l-8.7-2.9C6,24.8,5.7,24.8,5.4,25l-2.8,1.4c-0.2,0.1-0.4,0-0.5-0.2
				s0-0.4,0.2-0.5l2.8-1.4c0.5-0.2,1-0.3,1.5-0.1l8.7,2.9c0.2,0.1,0.4,0.1,0.6,0l0.4-0.1c0.3-0.1,0.5-0.2,0.7-0.3l8.8-6.5
				c0.2-0.2,0.3-0.5,0.3-0.8L26,19c-0.1-0.2-0.3-0.4-0.5-0.4h-0.1l-8.3,5.1c-0.1,0.1-0.3,0.1-0.4,0l-3-1.6c-0.2-0.1-0.3-0.3-0.2-0.5
				s0.3-0.3,0.5-0.2l2.8,1.5l8.1-5c0.2-0.1,0.3-0.1,0.5-0.1c0.6,0,1.1,0.4,1.2,1l0.1,0.3c0.1,0.6-0.1,1.2-0.6,1.6l-8.8,6.5
				c-0.3,0.2-0.6,0.4-0.9,0.5L16,27.8C16,27.9,15.8,27.9,15.6,27.9z"/>
		</g>
		<g>
			<path class="st0" d="M13.9,22.2l-2-0.1c-0.2,0-0.4-0.2-0.4-0.4c0-0.2,0.2-0.4,0.4-0.4l2,0.1l5-0.1c0.3,0,0.5-0.2,0.5-0.5v-0.5
				c0-0.2-0.1-0.4-0.4-0.5l-9.6-1.2c-0.2,0-0.4,0-0.6,0.1l-5.6,1.9c-0.2,0.1-0.4,0-0.5-0.2s0-0.4,0.2-0.5L8.7,18
				c0.3-0.1,0.6-0.1,0.9-0.1l9.6,1.2c0.6,0.1,1.1,0.6,1,1.3v0.5c-0.1,0.7-0.6,1.2-1.3,1.2L13.9,22.2z"/>
		</g>
		<g>
			<path class="st0" d="M18.7,19.9c-0.2,0-0.3-0.1-0.4-0.2c-0.1-0.2,0-0.4,0.2-0.5l3.7-1.5c0.3-0.1,0.6-0.1,0.9,0
				c0.6,0.2,1,0.8,1,1.4v0.1c0,0.2-0.2,0.4-0.4,0.4c-0.2,0-0.4-0.2-0.4-0.4v-0.1c0-0.3-0.2-0.6-0.5-0.7c-0.1,0-0.2,0-0.4,0
				L18.7,19.9C18.8,19.9,18.8,19.9,18.7,19.9z"/>
		</g>
	</g>
</g>
</svg>
