<?xml version="1.0" encoding="utf-8"?>
<!-- Generator: Adobe Illustrator 25.1.0, SVG Export Plug-In . SVG Version: 6.00 Build 0)  -->
<svg version="1.1" id="Calque_1" xmlns="http://www.w3.org/2000/svg" xmlns:xlink="http://www.w3.org/1999/xlink" x="0px" y="0px"
	 viewBox="0 0 28.3 28.3" style="enable-background:new 0 0 28.3 28.3;" xml:space="preserve">
<style type="text/css">
	.st0{fill:#F27930;}
</style>
<g>
	<g>
		<path class="st0" d="M22.9,22c0-1.1,0.9-1.9,1.9-1.9s1.9,0.9,1.9,1.9c0,1.1-0.9,1.9-1.9,1.9S22.9,23.1,22.9,22z M23.8,22
			c0,0.6,0.5,1.1,1.1,1.1S26,22.6,26,22s-0.5-1.1-1.1-1.1S23.8,21.4,23.8,22z"/>
	</g>
	<g>
		<path class="st0" d="M16.2,15.6c0-1.1,0.9-1.9,1.9-1.9s1.9,0.9,1.9,1.9c0,1.1-0.9,1.9-1.9,1.9S16.2,16.7,16.2,15.6z M17.1,15.6
			c0,0.6,0.5,1.1,1.1,1.1s1.1-0.5,1.1-1.1s-0.5-1.1-1.1-1.1S17.1,15,17.1,15.6z"/>
	</g>
	<g>
		<path class="st0" d="M9.6,17.9c0-1.1,0.9-1.9,1.9-1.9s1.9,0.9,1.9,1.9c0,1.1-0.9,1.9-1.9,1.9S9.6,19,9.6,17.9z M10.4,17.9
			c0,0.6,0.5,1.1,1.1,1.1s1.1-0.5,1.1-1.1s-0.5-1.1-1.1-1.1S10.4,17.3,10.4,17.9z"/>
	</g>
	<g>
		<path class="st0" d="M2.9,6.8c0-1.1,0.9-1.9,1.9-1.9s1.9,0.9,1.9,1.9c0,1.1-0.9,1.9-1.9,1.9S2.9,7.9,2.9,6.8z M3.7,6.8
			c0,0.6,0.5,1.1,1.1,1.1s1.1-0.5,1.1-1.1S5.4,5.7,4.8,5.7S3.7,6.2,3.7,6.8z"/>
	</g>
	<g>
		<path class="st0" d="M23.8,21.4c0.1,0,0.2,0,0.3-0.1c0.2-0.2,0.2-0.4,0-0.6l-4.5-4.4c-0.2-0.2-0.4-0.2-0.6,0s-0.2,0.4,0,0.6
			l4.5,4.4C23.5,21.4,23.7,21.4,23.8,21.4z"/>
	</g>
	<g>
		<path class="st0" d="M10.7,17c0.1,0,0.2,0,0.2-0.1c0.2-0.1,0.3-0.4,0.1-0.6L6,7.9C5.8,7.6,5.6,7.6,5.4,7.7
			C5.2,7.8,5.1,8.1,5.2,8.3l5.1,8.5C10.4,17,10.6,17,10.7,17z"/>
	</g>
	<g>
		<path class="st0" d="M12.9,17.8H13l3.8-1.3c0.2-0.1,0.3-0.3,0.3-0.5c-0.1-0.2-0.3-0.3-0.5-0.3L12.8,17c-0.2,0.1-0.3,0.3-0.3,0.5
			C12.6,17.7,12.7,17.8,12.9,17.8z"/>
	</g>
</g>
<g>
	<g>
		<path class="st0" d="M27.2,27.8H1.4c-0.2,0-0.4-0.2-0.4-0.4V1.1c0-0.2,0.2-0.4,0.4-0.4s0.4,0.2,0.4,0.4V27h25.4
			c0.2,0,0.4,0.2,0.4,0.4C27.6,27.6,27.5,27.8,27.2,27.8z"/>
	</g>
</g>
<g>
	<path class="st0" d="M24.8,27.8c0.2,0,0.4-0.2,0.4-0.4v-3.8c0-0.2-0.2-0.4-0.4-0.4s-0.4,0.2-0.4,0.4v3.8
		C24.4,27.6,24.6,27.8,24.8,27.8z"/>
</g>
<g>
	<path class="st0" d="M18.2,27.8c0.2,0,0.4-0.2,0.4-0.4V17.1c0-0.2-0.2-0.4-0.4-0.4s-0.4,0.2-0.4,0.4v10.3
		C17.7,27.6,17.9,27.8,18.2,27.8z"/>
</g>
<g>
	<path class="st0" d="M11.5,27.8c0.2,0,0.4-0.2,0.4-0.4v-8c0-0.2-0.2-0.4-0.4-0.4s-0.4,0.2-0.4,0.4v8C11.1,27.6,11.2,27.8,11.5,27.8
		z"/>
</g>
<g>
	<path class="st0" d="M4.8,27.8c0.2,0,0.4-0.2,0.4-0.4V8.3c0-0.2-0.2-0.4-0.4-0.4S4.4,8.1,4.4,8.3v19.1C4.4,27.6,4.6,27.8,4.8,27.8z
		"/>
</g>
</svg>
