<?xml version="1.0" encoding="utf-8"?>
<!-- Generator: Adobe Illustrator 25.1.0, SVG Export Plug-In . SVG Version: 6.00 Build 0)  -->
<svg version="1.1" id="Calque_1" xmlns="http://www.w3.org/2000/svg" xmlns:xlink="http://www.w3.org/1999/xlink" x="0px" y="0px"
	 viewBox="0 0 28.3 28.3" style="enable-background:new 0 0 28.3 28.3;" xml:space="preserve">
<style type="text/css">
	.st0{fill:#F27930;}
</style>
<g>
	<path class="st0" d="M16.5,10.1c-0.4,0.3-1,0.5-1.8,0.5c-1,0-1.8-0.4-2.4-1.1c-0.5-0.5-0.8-1.2-0.9-2.1h-0.7V6.8h0.7
		c0-0.1,0-0.1,0-0.2c0-0.2,0-0.4,0-0.5h-0.7V5.5h0.8c0.1-0.8,0.5-1.5,1-2c0.6-0.6,1.4-1,2.4-1c0.7,0,1.3,0.2,1.6,0.4l-0.2,0.8
		C16,3.5,15.5,3.4,15,3.4c-0.6,0-1.2,0.2-1.6,0.6c-0.3,0.4-0.6,0.9-0.7,1.5H16v0.6h-3.5c0,0.2,0,0.3,0,0.5c0,0.1,0,0.1,0,0.2H16v0.6
		h-3.4c0.1,0.7,0.3,1.2,0.7,1.6c0.4,0.5,1,0.7,1.7,0.7c0.6,0,1.2-0.2,1.5-0.4L16.5,10.1z"/>
</g>
<g>
	<g>
		<g>
			<path class="st0" d="M14.5,12.5c-3.2,0-5.9-2.6-5.9-5.9c0-3.2,2.6-5.9,5.9-5.9s5.9,2.6,5.9,5.9C20.3,9.9,17.7,12.5,14.5,12.5z
				 M14.5,1.5c-2.8,0-5.1,2.3-5.1,5.1s2.3,5.1,5.1,5.1s5.1-2.3,5.1-5.1S17.3,1.5,14.5,1.5z"/>
		</g>
	</g>
	<g>
		<g>
			<path class="st0" d="M20.9,23.8L20.9,23.8c-0.2,0-0.4-0.2-0.4-0.4l0.1-1.7c0-0.4,0.2-0.8,0.5-1l3.5-4.1l0,0
				c0.1-0.1,0.2-0.2,0.2-0.3l0.1-0.3c0-0.2,0.1-0.3,0-0.5l-0.8-8C24.3,7.2,24.2,7,24,7l-0.2-0.1c-0.1,0-0.2,0-0.3,0.1v1.2l0.1,6
				c0,0.1-0.1,0.3-0.2,0.3l-2.2,1.3c-0.2,0.1-0.4,0-0.5-0.1c-0.1-0.2,0-0.4,0.1-0.5l2-1.1l-0.1-6.9c0-0.2,0-0.3,0.1-0.4
				C23,6.2,23.5,6,24,6.2l0.2,0.1c0.5,0.1,0.8,0.5,0.8,1l0.8,8c0,0.3,0,0.5-0.1,0.8l-0.1,0.3c-0.1,0.3-0.2,0.5-0.4,0.7l-3.5,4.1l0,0
				c-0.2,0.1-0.3,0.3-0.3,0.5l-0.1,1.7C21.2,23.6,21.1,23.8,20.9,23.8z"/>
		</g>
		<g>
			<path class="st0" d="M15.9,23.8L15.9,23.8c-0.2,0-0.4-0.2-0.4-0.4v-5.1v-0.1c0.1-0.2,0.2-0.5,0.3-0.6l5.3-6.5
				c0.3-0.4,0.9-0.5,1.3-0.2l0.3,0.2c0.4,0.3,0.6,0.9,0.3,1.4l-1.8,3.2L20.4,17c-0.1,0.2-0.4,0.2-0.5,0.1c-0.2-0.1-0.2-0.4-0.1-0.5
				l0.8-1.2l1.8-3.2c0.1-0.1,0-0.3-0.1-0.4L22,11.6c-0.1-0.1-0.2,0-0.3,0L16.5,18c-0.1,0.1-0.1,0.2-0.1,0.3v5.1
				C16.3,23.6,16.1,23.8,15.9,23.8z"/>
		</g>
		<g>
			<path class="st0" d="M21.3,11.9L21.3,11.9c-0.3,0-0.4-0.2-0.4-0.4l0.5-2.9c0.1-0.3,0.2-0.5,0.4-0.6c0.4-0.3,1-0.4,1.4-0.1h0.1
				c0.2,0.1,0.2,0.3,0.1,0.5s-0.3,0.2-0.5,0.1h-0.1c-0.2-0.1-0.4-0.1-0.5,0c-0.1,0-0.1,0.1-0.1,0.2l-0.5,2.9
				C21.7,11.8,21.5,11.9,21.3,11.9z"/>
		</g>
		<g>
			<path class="st0" d="M21.3,25.8H15c-0.2,0-0.4-0.2-0.4-0.4v-2.1c0-0.2,0.2-0.4,0.4-0.4h6.3c0.2,0,0.4,0.2,0.4,0.4v2.1
				C21.7,25.7,21.6,25.8,21.3,25.8z M15.4,25.1H21v-1.3h-5.5v1.3H15.4z"/>
		</g>
		<g>
			<path class="st0" d="M21.2,27.3c-0.2,0-0.4-0.2-0.4-0.4v-1.5c0-0.2,0.2-0.4,0.4-0.4s0.4,0.2,0.4,0.4V27
				C21.5,27.2,21.4,27.3,21.2,27.3z"/>
		</g>
		<g>
			<path class="st0" d="M15.5,27.3c-0.2,0-0.4-0.2-0.4-0.4v-1.5c0-0.2,0.2-0.4,0.4-0.4s0.4,0.2,0.4,0.4V27
				C15.9,27.2,15.7,27.3,15.5,27.3z"/>
		</g>
	</g>
	<g>
		<g>
			<path class="st0" d="M7.9,23.8c-0.2,0-0.4-0.2-0.4-0.4l-0.1-1.7c0-0.2-0.1-0.4-0.3-0.5l0,0l-3.5-4.1c-0.2-0.2-0.4-0.4-0.4-0.7
				l-0.1-0.3C3,15.8,3,15.5,3,15.2l0.8-8c0-0.5,0.4-0.9,0.8-1l0.2-0.1C5.3,6,5.8,6.2,6,6.6C6.1,6.7,6.1,6.9,6.1,7v7l2,1.1
				c0.2,0.1,0.2,0.3,0.1,0.5c-0.1,0.2-0.3,0.2-0.5,0.1l-2.2-1.3c-0.1-0.1-0.2-0.2-0.2-0.3L5.4,7C5.3,6.9,5.2,6.9,5.1,6.9L4.8,7
				C4.7,7,4.5,7.2,4.5,7.3l-0.8,8c0,0.2,0,0.4,0,0.5l0.1,0.3c0,0.1,0.1,0.3,0.2,0.3l0,0l3.5,4.1c0.3,0.3,0.5,0.6,0.5,1l0.1,1.7
				C8.3,23.6,8.2,23.8,7.9,23.8C8,23.8,8,23.8,7.9,23.8z"/>
		</g>
		<g>
			<path class="st0" d="M12.9,23.8c-0.2,0-0.4-0.2-0.4-0.4v-5.1c0-0.1-0.1-0.2-0.1-0.3L7,11.6c-0.1-0.1-0.2-0.1-0.3,0l-0.3,0.2
				c-0.1,0.1-0.2,0.2-0.1,0.4l1.8,3.2L9,16.5c0.1,0.2,0,0.4-0.1,0.5c-0.2,0.1-0.4,0.1-0.5-0.1l-0.8-1.2l-1.8-3.2
				C5.4,12,5.5,11.4,6,11.1l0.3-0.2c0.4-0.3,1-0.2,1.3,0.2l5.3,6.5c0.2,0.2,0.3,0.4,0.3,0.6v0.1v5.1C13.3,23.6,13.1,23.8,12.9,23.8
				L12.9,23.8z"/>
		</g>
		<g>
			<path class="st0" d="M7.5,11.9c-0.2,0-0.3-0.1-0.4-0.3L6.6,8.7c0-0.1,0-0.1-0.1-0.2C6.4,8.4,6.2,8.4,6,8.5H5.9
				C5.8,8.7,5.5,8.6,5.4,8.4C5.3,8.2,5.4,8,5.6,7.9h0.1C6.1,7.6,6.6,7.6,7,8c0.2,0.2,0.3,0.4,0.4,0.6l0.5,2.9
				C7.9,11.7,7.8,11.9,7.5,11.9L7.5,11.9z"/>
		</g>
		<g>
			<path class="st0" d="M13.8,25.8H7.5c-0.2,0-0.4-0.2-0.4-0.4v-2.1c0-0.2,0.2-0.4,0.4-0.4h6.3c0.2,0,0.4,0.2,0.4,0.4v2.1
				C14.2,25.7,14,25.8,13.8,25.8z M7.9,25.1h5.5v-1.3H7.9V25.1z"/>
		</g>
		<g>
			<path class="st0" d="M7.7,27.3c-0.2,0-0.4-0.2-0.4-0.4v-1.5c0-0.2,0.2-0.4,0.4-0.4c0.2,0,0.4,0.2,0.4,0.4V27
				C8,27.2,7.9,27.3,7.7,27.3z"/>
		</g>
		<g>
			<path class="st0" d="M13.3,27.3c-0.2,0-0.4-0.2-0.4-0.4v-1.5c0-0.2,0.2-0.4,0.4-0.4s0.4,0.2,0.4,0.4V27
				C13.7,27.2,13.5,27.3,13.3,27.3z"/>
		</g>
	</g>
</g>
</svg>
