<?xml version="1.0" encoding="utf-8"?>
<!-- Generator: Adobe Illustrator 25.1.0, SVG Export Plug-In . SVG Version: 6.00 Build 0)  -->
<svg version="1.1" id="Calque_1" xmlns="http://www.w3.org/2000/svg" xmlns:xlink="http://www.w3.org/1999/xlink" x="0px" y="0px"
	 viewBox="0 0 28.3 28.3" style="enable-background:new 0 0 28.3 28.3;" xml:space="preserve">
<style type="text/css">
	.st0{fill:#F27930;}
</style>
<g>
	<g>
		<path class="st0" d="M17.5,23c-1.7,0-3.4-0.5-4.8-1.6c-0.2-0.1-0.2-0.4-0.1-0.6c0.1-0.2,0.4-0.2,0.6-0.1c1.2,0.9,2.7,1.4,4.3,1.4
			c4,0,7.2-3.2,7.2-7.2s-3.2-7.2-7.2-7.2c-2.6,0-5,1.4-6.3,3.7c-0.1,0.2-0.4,0.3-0.6,0.2c-0.2-0.1-0.3-0.4-0.2-0.6
			c1.4-2.5,4.1-4.1,7-4.1c4.4,0,8,3.6,8,8C25.5,19.4,21.9,23,17.5,23z"/>
	</g>
	<g>
		<path class="st0" d="M9.8,15.9c-0.2,0-0.4-0.2-0.4-0.4s0-0.4,0-0.6c0-0.8,0.1-1.6,0.4-2.4c0.1-0.2,0.3-0.3,0.5-0.3
			c0.2,0.1,0.3,0.3,0.3,0.5c-0.2,0.7-0.3,1.4-0.3,2.1c0,0.2,0,0.4,0,0.5C10.3,15.7,10.1,15.9,9.8,15.9C9.9,15.9,9.9,15.9,9.8,15.9z"
			/>
	</g>
	<g>
		<path class="st0" d="M11.6,20.2c-0.1,0-0.2-0.1-0.3-0.1c-0.7-0.8-1.2-1.8-1.5-2.8c-0.1-0.2,0.1-0.5,0.3-0.5
			c0.2-0.1,0.5,0.1,0.5,0.3c0.3,0.9,0.7,1.8,1.4,2.5c0.1,0.2,0.1,0.4-0.1,0.6C11.8,20.2,11.7,20.2,11.6,20.2z"/>
	</g>
	<g>
		<path class="st0" d="M21.1,18.9c-0.1,0-0.2,0-0.3-0.1l-2.4-2.4c-0.2-0.2-0.2-0.4,0-0.6c0.2-0.2,0.4-0.2,0.6,0l2.4,2.4
			c0.2,0.2,0.2,0.4,0,0.6C21.3,18.9,21.2,18.9,21.1,18.9z"/>
	</g>
	<g>
		<path class="st0" d="M17.5,5.1c-0.2,0-0.4-0.2-0.4-0.4V2.1c0-0.2,0.2-0.4,0.4-0.4c0.2,0,0.4,0.2,0.4,0.4v2.6
			C17.9,4.9,17.7,5.1,17.5,5.1z"/>
	</g>
	<g>
		<path class="st0" d="M18.5,2.5h-2.2c-0.2,0-0.4-0.2-0.4-0.4s0.2-0.4,0.4-0.4h2.2c0.2,0,0.4,0.2,0.4,0.4
			C18.9,2.3,18.8,2.5,18.5,2.5z"/>
	</g>
	<g>
		<path class="st0" d="M17.5,17c-1.2,0-2.2-1-2.2-2.2s1-2.2,2.2-2.2s2.2,1,2.2,2.2S18.6,17,17.5,17z M17.5,13.6
			c-0.7,0-1.3,0.6-1.3,1.3s0.6,1.3,1.3,1.3c0.7,0,1.3-0.6,1.3-1.3C18.8,14.2,18.2,13.6,17.5,13.6z"/>
	</g>
	<g>
		<path class="st0" d="M12.7,6.2c-0.2,0-0.3-0.1-0.4-0.2l-1-1.9c0-0.1-0.1-0.2,0-0.3c0-0.1,0.1-0.2,0.2-0.2l1.8-0.9
			c0.2-0.1,0.5,0,0.6,0.2l1,2.1c0.1,0.2,0,0.5-0.2,0.6s-0.5,0-0.6-0.2l-0.9-1.7l-1.1,0.5L13,5.6c0.1,0.2,0,0.5-0.2,0.6H12.7z"/>
	</g>
	<g>
		<path class="st0" d="M17.4,25.4h-12C5.2,25.4,5,25.3,5,25s0.2-0.4,0.4-0.4h11.9c0.2,0,0.4,0.2,0.4,0.4S17.6,25.4,17.4,25.4z"/>
	</g>
	<g>
		<path class="st0" d="M17.4,25.4c-0.2,0-0.4-0.2-0.4-0.4s0.2-0.4,0.4-0.4c5.4,0,9.8-4.4,9.8-9.8S22.8,5,17.4,5
			c-4,0-7.7,2.5-9.1,6.3c-0.1,0.2-0.3,0.3-0.5,0.2S7.5,11.2,7.6,11C9,7,13,4.3,17.4,4.3C23.2,4.3,28,9,28,14.9S23.2,25.4,17.4,25.4z
			"/>
	</g>
	<g>
		<path class="st0" d="M7.2,15.9c-0.2,0-0.4-0.2-0.4-0.4s0-0.4,0-0.7c0-0.7,0.1-1.4,0.2-2.1c0-0.2,0.3-0.4,0.5-0.3
			c0.2,0,0.4,0.3,0.3,0.5c-0.1,0.6-0.2,1.3-0.2,1.9c0,0.2,0,0.4,0,0.6C7.6,15.7,7.5,15.9,7.2,15.9L7.2,15.9z"/>
	</g>
	<g>
		<path class="st0" d="M8.5,20.2c-0.1,0-0.3-0.1-0.4-0.2c-0.5-0.9-0.8-1.8-1.1-2.8c0-0.2,0.1-0.4,0.4-0.4c0.2-0.1,0.4,0.1,0.5,0.3
			c0.2,0.9,0.5,1.7,1,2.5c0.1,0.2,0,0.5-0.2,0.6C8.6,20.2,8.5,20.2,8.5,20.2z"/>
	</g>
	<g>
		<path class="st0" d="M11.3,23.4c-0.1,0-0.2,0-0.2-0.1c-0.7-0.5-1.3-1.1-1.8-1.7c-0.1-0.2-0.1-0.4,0.1-0.6c0.2-0.1,0.4-0.1,0.6,0.1
			c0.5,0.6,1,1.1,1.6,1.6c0.2,0.1,0.2,0.4,0.1,0.6C11.5,23.4,11.4,23.4,11.3,23.4z"/>
	</g>
	<g>
		<path class="st0" d="M13.6,20.2H5c-0.2,0-0.4-0.2-0.4-0.4c0-0.2,0.2-0.4,0.4-0.4h8.6c0.2,0,0.4,0.2,0.4,0.4S13.8,20.2,13.6,20.2z"
			/>
	</g>
	<g>
		<path class="st0" d="M9.8,15.9H0.6c-0.2,0-0.4-0.2-0.4-0.4s0.2-0.4,0.4-0.4h9.2c0.2,0,0.4,0.2,0.4,0.4
			C10.3,15.7,10.1,15.9,9.8,15.9z"/>
	</g>
	<g>
		<path class="st0" d="M13.6,11.6H4.9c-0.2,0-0.4-0.2-0.4-0.4s0.2-0.4,0.4-0.4h8.6c0.2,0,0.4,0.2,0.4,0.4
			C14,11.4,13.8,11.6,13.6,11.6z"/>
	</g>
</g>
</svg>
