<?xml version="1.0" encoding="utf-8"?>
<!-- Generator: Adobe Illustrator 25.1.0, SVG Export Plug-In . SVG Version: 6.00 Build 0)  -->
<svg version="1.1" id="Calque_1" xmlns="http://www.w3.org/2000/svg" xmlns:xlink="http://www.w3.org/1999/xlink" x="0px" y="0px"
	 viewBox="0 0 28.3 28.3" style="enable-background:new 0 0 28.3 28.3;" xml:space="preserve">
<style type="text/css">
	.st0{fill:#F27930;}
</style>
<g>
	<g>
		<path class="st0" d="M14.7,16.7c-0.3,0.1-0.8,0.3-1.5,0.3c-1.6,0-2.9-1-2.9-2.9c0-1.8,1.2-3,3-3c0.7,0,1.2,0.2,1.4,0.3L14.5,12
			c-0.3-0.1-0.7-0.2-1.2-0.2c-1.4,0-2.3,0.9-2.3,2.4c0,1.4,0.8,2.3,2.2,2.3c0.5,0,0.9-0.1,1.2-0.2L14.7,16.7z"/>
		<path class="st0" d="M18.6,14.2h-2.2v2.1h2.5v0.6h-3.3v-5.8h3.1v0.6h-2.4v1.8h2.2v0.7H18.6z"/>
		<path class="st0" d="M22.9,14.2h-2.2v2.1h2.5v0.6h-3.3v-5.8H23v0.6h-2.4v1.8h2.2L22.9,14.2L22.9,14.2z"/>
	</g>
</g>
<g>
	<g>
		<path class="st0" d="M9.8,24c-0.4,0-0.9,0-1.7,0c-0.2,0-0.4-0.2-0.4-0.4v-4.4c-1.5-0.8-6.6-3.5-6.8-5.7c-0.1-2.1,0-2.6,0-2.6
			c0-0.2,0.2-0.3,0.4-0.3l2.6-0.3l2-2.3c-0.2-1.5-0.6-2.9-1-3C4.8,4.9,4.6,4.8,4.7,4.6c0-0.2,0.2-0.4,0.3-0.4C6.3,3.9,8.6,4.1,9.8,6
			c0,0,0,0,0-0.1c0.9-1.2,3.1-1.8,6.5-1.8c7.4,0,11.4,4.9,11.4,8.5c0,3.2-1.6,5.6-3.3,6.5v4.4c0,0.2-0.2,0.4-0.4,0.4h-2.7
			c-0.2,0-0.3-0.1-0.4-0.2c0-0.1-0.9-1.5-1.3-2.4c-1.1,0.3-4.3,1.1-7.9,0c-0.4,1.1-0.8,2.1-0.9,2.3c0,0.1-0.1,0.2-0.1,0.2
			C10.7,23.9,10.6,24,9.8,24z M10.1,23.4v0.1V23.4z M8.6,23.1c0.6,0,1.3,0,1.6,0c0.1-0.4,0.4-1.1,0.9-2.5c0.1-0.2,0.3-0.3,0.5-0.3
			c4.2,1.5,8.1,0,8.1,0c0.1,0,0.2,0,0.3,0c0.1,0.1,0.2,0.1,0.2,0.3c0.2,0.7,1,2,1.3,2.5h2v-4.2c0-0.2,0.1-0.3,0.2-0.4
			c1.5-0.8,3-2.9,3-5.9C26.7,10,23.5,5,16.2,5c-4.1,0-5.4,0.9-5.8,1.5c-0.3,0.4-0.3,0.7-0.3,0.9v0.1C10.1,7.7,10,8,9.8,8
			c0-0.1-0.3-0.2-0.3-0.4c0,0,0-0.1,0-0.2C8.9,5.3,7.1,4.9,6,4.9l0,0c0.5,0.9,0.8,2.5,0.8,3c0,0.1,0,0.2-0.1,0.3l-2.3,2.6
			c0,0.2-0.1,0.2-0.2,0.3l-2.4,0.3c0,0.3,0,0.9,0,2.1c0.1,1.4,4,3.8,6.5,5c0.1,0.1,0.2,0.2,0.2,0.4v4.2H8.6z"/>
	</g>
	<g>
		<path class="st0" d="M8.8,11.3c-0.2,0-0.4-0.2-0.4-0.4s-0.1-0.3-0.3-0.3s-0.3,0.1-0.3,0.3s-0.2,0.4-0.4,0.4
			c-0.2,0-0.4-0.2-0.4-0.4c0-0.7,0.5-1.2,1.2-1.2s1.2,0.5,1.2,1.2C9.2,11.1,9,11.3,8.8,11.3z"/>
	</g>
	<g>
		<path class="st0" d="M19.6,7.4c-0.1,0-0.1,0-0.2,0C16.7,6,14.1,7.1,14,7.1c-0.2,0.1-0.5,0-0.6-0.2s0-0.5,0.2-0.6
			c0.1-0.1,3.1-1.2,6.1,0.2C20,6.7,20.1,6.9,20,7.2C19.9,7.3,19.7,7.4,19.6,7.4z"/>
	</g>
</g>
</svg>
