<?xml version="1.0" encoding="utf-8"?>
<!-- Generator: Adobe Illustrator 25.1.0, SVG Export Plug-In . SVG Version: 6.00 Build 0)  -->
<svg version="1.1" id="Calque_1" xmlns="http://www.w3.org/2000/svg" xmlns:xlink="http://www.w3.org/1999/xlink" x="0px" y="0px"
	 viewBox="0 0 28.3 28.3" style="enable-background:new 0 0 28.3 28.3;" xml:space="preserve">
<style type="text/css">
	.st0{fill:#F27930;}
</style>
<g>
	<g>
		<g>
			<path class="st0" d="M14.3,21c-0.2,0-0.3-0.1-0.4-0.2c-0.5-0.8-1-1.2-1.4-1.3c-0.5-0.1-1,0.1-1.8,0.7c-0.1,0.1-0.3,0.1-0.5,0.1
				C10.1,20.1,10,20,10,19.8c-0.1-0.9-0.4-1.5-0.7-1.7c-0.4-0.2-1-0.3-1.9,0c-0.2,0-0.3,0-0.4-0.1s-0.2-0.3-0.1-0.4
				c0.2-0.9,0.2-1.5,0-1.9C6.6,15.3,6,15,5.1,14.9c-0.2,0-0.3-0.1-0.4-0.3c-0.1-0.1,0-0.3,0.1-0.5c0.6-0.7,0.8-1.3,0.7-1.8
				C5.4,12,4.9,11.5,4.1,11c-0.1-0.1-0.2-0.2-0.2-0.4s0.1-0.3,0.2-0.4c0.8-0.5,1.2-1,1.3-1.4c0.1-0.5-0.1-1-0.7-1.8
				c0-0.1,0-0.3,0-0.4c0.1-0.1,0.2-0.3,0.4-0.3C6,6.2,6.6,5.9,6.8,5.5c0.2-0.4,0.3-1,0-1.9c0-0.2,0-0.3,0.1-0.4C7,3.1,7.2,3,7.3,3.1
				c0.9,0.2,1.5,0.2,1.9,0C9.6,2.9,9.9,2.3,10,1.4c0-0.2,0.1-0.3,0.3-0.4c0.1-0.1,0.3,0,0.5,0.1c0.7,0.6,1.3,0.8,1.8,0.7
				c0.5-0.1,0.9-0.5,1.4-1.3c0.2-0.3,0.6-0.3,0.8,0c0.5,0.8,1,1.2,1.4,1.3c0.5,0.1,1-0.1,1.8-0.7C18,1,18.2,1,18.3,1
				c0.1,0.1,0.3,0.2,0.3,0.4c0.1,0.9,0.4,1.5,0.7,1.7c0.4,0.2,1,0.3,1.9,0c0.2,0,0.3,0,0.4,0.1s0.2,0.3,0.1,0.4
				c-0.2,0.9-0.2,1.5,0,1.9s0.8,0.6,1.7,0.7c0.2,0,0.3,0.1,0.4,0.3c0.1,0.1,0,0.3-0.1,0.5c-0.6,0.7-0.8,1.3-0.7,1.8
				c0.1,0.5,0.5,0.9,1.3,1.4c0.1,0.1,0.2,0.2,0.2,0.4s-0.1,0.3-0.2,0.4c-0.8,0.5-1.2,1-1.3,1.4c-0.1,0.5,0.1,1,0.7,1.8
				c0.1,0.1,0.1,0.3,0.1,0.5c-0.1,0.1-0.2,0.3-0.4,0.3c-0.9,0.1-1.5,0.4-1.7,0.7c-0.2,0.4-0.3,1,0,1.9c0,0.2,0,0.3-0.1,0.4
				s-0.3,0.2-0.4,0.1c-0.9-0.2-1.5-0.2-1.9,0s-0.6,0.8-0.7,1.7c0,0.2-0.1,0.3-0.3,0.4c-0.1,0.1-0.3,0-0.5-0.1
				c-0.7-0.6-1.3-0.8-1.8-0.7c-0.5,0.1-0.9,0.5-1.4,1.3C14.6,20.9,14.5,21,14.3,21z M12.3,18.5c0.1,0,0.3,0,0.4,0
				c0.6,0.1,1.1,0.5,1.7,1.2c0.5-0.7,1.1-1.1,1.7-1.2s1.2,0,1.9,0.4c0.2-0.8,0.5-1.3,1-1.7c0.5-0.3,1.1-0.4,1.9-0.3
				c-0.1-0.8,0-1.4,0.3-1.9s0.9-0.8,1.7-1c-0.4-0.7-0.6-1.3-0.4-1.9c0.1-0.6,0.5-1.1,1.2-1.7c-0.7-0.5-1.1-1.1-1.2-1.7
				c-0.1-0.6,0-1.2,0.4-1.9c-0.8-0.2-1.3-0.5-1.7-1c-0.3-0.5-0.4-1.1-0.3-1.9c-0.8,0.1-1.4,0-1.9-0.3s-0.8-0.9-1-1.7
				c-0.7,0.4-1.3,0.5-1.9,0.4S15,1.8,14.4,1.1c-0.5,0.7-1.1,1.1-1.7,1.2c-0.6,0.1-1.2,0-1.9-0.4c-0.2,0.8-0.5,1.3-1,1.7
				C9.3,4.2,8.7,4.3,7.9,4.2C8,5,7.9,5.6,7.6,6.1s-0.9,0.8-1.7,1C6.3,7.8,6.5,8.4,6.3,9c-0.1,0.6-0.5,1.1-1.2,1.7
				c0.7,0.5,1.1,1.1,1.2,1.7c0.1,0.6,0,1.2-0.4,1.9c0.8,0.2,1.3,0.5,1.7,1C7.9,15.6,8,16.2,7.9,17c0.8-0.1,1.4,0,1.9,0.3
				s0.8,0.9,1,1.7C11.3,18.7,11.8,18.5,12.3,18.5z"/>
		</g>
		<g>
			<path class="st0" d="M14.3,16.9c-3.5,0-6.3-2.8-6.3-6.3s2.8-6.3,6.3-6.3s6.3,2.8,6.3,6.3S17.7,16.9,14.3,16.9z M14.3,5.3
				C11.4,5.3,9,7.7,9,10.6s2.4,5.3,5.3,5.3s5.3-2.4,5.3-5.3S17.2,5.3,14.3,5.3z"/>
		</g>
	</g>
	<g>
		<g>
			<path class="st0" d="M11,27.8h-0.1l-6.1-2c-0.2-0.1-0.4-0.3-0.3-0.6l1.9-6.1c0.1-0.2,0.3-0.4,0.6-0.3c0.2,0.1,0.4,0.3,0.3,0.6
				l-1.8,5.7l5.2,1.7l1.8-5.6c0.1-0.2,0.3-0.4,0.6-0.3c0.2,0.1,0.4,0.3,0.3,0.6l-1.9,6C11.3,27.7,11.2,27.8,11,27.8z"/>
		</g>
		<g>
			<path class="st0" d="M17.6,27.8c-0.1,0-0.1,0-0.2-0.1s-0.2-0.2-0.2-0.3l-1.9-6c-0.1-0.2,0.1-0.5,0.3-0.6s0.5,0.1,0.6,0.3l1.8,5.6
				l5.2-1.7l-1.9-5.9c-0.1-0.2,0.1-0.5,0.3-0.6c0.2-0.1,0.5,0.1,0.6,0.3l2,6.3c0.1,0.2-0.1,0.5-0.3,0.6l-6.1,2
				C17.7,27.8,17.7,27.8,17.6,27.8z"/>
		</g>
	</g>
</g>
<g>
	<path class="st0" d="M16.1,13.4c-0.3,0.2-0.8,0.4-1.4,0.4c-0.7,0-1.4-0.3-1.8-0.8c-0.3-0.4-0.6-0.9-0.7-1.6h-0.6v-0.5h0.5v-0.1
		c0-0.1,0-0.3,0-0.4h-0.5V9.9h0.6c0.1-0.6,0.4-1.2,0.7-1.5c0.5-0.5,1.1-0.8,1.8-0.8c0.5,0,1,0.2,1.2,0.3l-0.2,0.6
		c-0.2-0.1-0.6-0.3-1-0.3c-0.5,0-0.9,0.2-1.2,0.5S13.1,9.4,13,9.9h2.5v0.5H13c0,0.1,0,0.2,0,0.4c0,0.1,0,0.1,0,0.2h2.6v0.5H13
		c0.1,0.5,0.2,0.9,0.5,1.2c0.3,0.4,0.8,0.5,1.3,0.5s0.9-0.2,1.1-0.3L16.1,13.4z"/>
</g>
</svg>
